<svg xmlns="http://www.w3.org/2000/svg" viewBox="0 0 30.72 30.72">
  <defs>
    <style>
      .cls-1 {
        fill: #fff;
      }

      .cls-2 {
        fill: #2e2750;
      }

      .cls-3 {
        fill: none;
        stroke: #251f45;
        stroke-miterlimit: 10;
        stroke-width: 0.78px;
      }
    </style>
  </defs>
  <g id="Capa_2" data-name="Capa 2">
    <g id="Page_1" data-name="Page 1">
      <polygon class="cls-1" points="22.15 20.44 17.91 22.25 17.91 17.41 22.15 15.59 22.15 20.44"/>
      <path class="cls-2" d="M17.91,22.54a.32.32,0,0,1-.16,0,.31.31,0,0,1-.13-.25V17.41a.28.28,0,0,1,.18-.26L22,15.33a.29.29,0,0,1,.27,0,.31.31,0,0,1,.13.24v4.85a.28.28,0,0,1-.18.26L18,22.52a.2.2,0,0,1-.11,0m.29-4.94v4.22l3.66-1.57V16Zm3.95,2.84h0Z"/>
      <polygon class="cls-1" points="13.67 20.44 17.91 22.25 17.91 17.41 13.67 15.59 13.67 20.44"/>
      <path class="cls-2" d="M17.91,22.54l-.11,0L13.56,20.7a.28.28,0,0,1-.18-.26V15.59a.29.29,0,0,1,.41-.26L18,17.15a.28.28,0,0,1,.18.26v4.84a.28.28,0,0,1-.13.24.24.24,0,0,1-.16.05M14,20.25l3.66,1.57V17.6L14,16Z"/>
      <polygon class="cls-1" points="17.91 13.87 13.67 15.6 17.91 17.41 22.15 15.6 17.91 13.87"/>
      <path class="cls-2" d="M17.91,17.7l-.11,0-4.24-1.82a.29.29,0,0,1-.18-.27.31.31,0,0,1,.18-.26l4.24-1.72a.28.28,0,0,1,.22,0l4.24,1.72a.29.29,0,0,1,0,.53L18,17.68l-.11,0m-3.49-2.1,3.49,1.5,3.49-1.5-3.49-1.42Z"/>
      <polygon class="cls-1" points="21.23 14.87 17.91 16.29 17.91 12.49 21.23 11.07 21.23 14.87"/>
      <path class="cls-2" d="M17.91,16.52a.25.25,0,0,1-.12,0,.21.21,0,0,1-.11-.19v-3.8a.24.24,0,0,1,.14-.21l3.33-1.42a.22.22,0,0,1,.31.21v3.8a.2.2,0,0,1-.14.2L18,16.5l-.09,0m.23-3.88V16L21,14.72V11.41Zm3.09,2.23h0Z"/>
      <polygon class="cls-1" points="14.59 14.87 17.91 16.29 17.91 12.49 14.59 11.07 14.59 14.87"/>
      <path class="cls-2" d="M17.91,16.52l-.09,0L14.5,15.07a.2.2,0,0,1-.14-.2v-3.8a.22.22,0,0,1,.31-.21L18,12.28a.24.24,0,0,1,.14.21v3.8a.23.23,0,0,1-.1.19.33.33,0,0,1-.13,0m-3.1-1.8L17.69,16V12.64l-2.88-1.23Z"/>
      <polygon class="cls-1" points="17.91 9.71 14.59 11.07 17.91 12.49 21.24 11.07 17.91 9.71"/>
      <path class="cls-2" d="M17.91,12.72l-.09,0L14.5,11.27a.22.22,0,0,1,0-.41l3.33-1.35a.17.17,0,0,1,.17,0l3.32,1.35a.22.22,0,0,1,0,.41L18,12.7l-.09,0m-2.74-1.65,2.74,1.17,2.74-1.17L17.91,10Z"/>
      <polygon class="cls-1" points="17.05 22.72 12.81 24.54 12.81 19.69 17.05 17.88 17.05 22.72"/>
      <path class="cls-2" d="M12.81,24.82a.32.32,0,0,1-.16,0,.31.31,0,0,1-.13-.24V19.69a.28.28,0,0,1,.18-.26l4.24-1.82a.29.29,0,0,1,.27,0,.28.28,0,0,1,.13.24v4.84a.29.29,0,0,1-.18.27L12.93,24.8a.25.25,0,0,1-.12,0m.29-4.94V24.1l3.66-1.57V18.31Zm4,2.84h0Z"/>
      <polygon class="cls-1" points="8.57 22.72 12.81 24.54 12.81 19.69 8.57 17.88 8.57 22.72"/>
      <path class="cls-2" d="M12.81,24.82a.22.22,0,0,1-.11,0L8.46,23a.26.26,0,0,1-.17-.26V17.88a.27.27,0,0,1,.12-.24.31.31,0,0,1,.28,0l4.24,1.82a.29.29,0,0,1,.17.26v4.85a.31.31,0,0,1-.13.24.29.29,0,0,1-.16,0m-4-2.29,3.66,1.57V19.88L8.86,18.31Z"/>
      <polygon class="cls-1" points="12.81 16.16 8.57 17.88 12.81 19.69 17.05 17.88 12.81 16.16"/>
      <path class="cls-2" d="M12.81,20l-.11,0L8.46,18.14a.26.26,0,0,1-.17-.27.29.29,0,0,1,.17-.26l4.24-1.72a.28.28,0,0,1,.22,0l4.24,1.72a.28.28,0,0,1,.18.26.28.28,0,0,1-.18.27L12.92,20l-.11,0m-3.49-2.1,3.49,1.5,3.49-1.5-3.49-1.41Z"/>
      <polygon class="cls-1" points="16.14 17.15 12.81 18.57 12.81 14.77 16.14 13.35 16.14 17.15"/>
      <path class="cls-2" d="M12.81,18.8a.17.17,0,0,1-.12,0,.21.21,0,0,1-.1-.19v-3.8a.21.21,0,0,1,.13-.2l3.33-1.43a.22.22,0,0,1,.21,0,.23.23,0,0,1,.1.19v3.8a.23.23,0,0,1-.14.21L12.9,18.78l-.09,0M13,14.92v3.31L15.91,17V13.69Zm3.1,2.23Z"/>
      <polygon class="cls-1" points="9.49 17.15 12.81 18.57 12.81 14.77 9.49 13.35 9.49 17.15"/>
      <path class="cls-2" d="M12.81,18.8l-.09,0L9.4,17.35a.2.2,0,0,1-.14-.2v-3.8a.23.23,0,0,1,.1-.19.25.25,0,0,1,.22,0l3.32,1.43a.22.22,0,0,1,.14.2v3.8a.23.23,0,0,1-.1.19.2.2,0,0,1-.13,0M9.71,17l2.88,1.23V14.92L9.71,13.69Z"/>
      <polygon class="cls-1" points="12.81 12 9.49 13.35 12.81 14.77 16.14 13.35 12.81 12"/>
      <path class="cls-2" d="M12.81,15l-.09,0L9.4,13.56a.23.23,0,0,1-.14-.21.23.23,0,0,1,.14-.21l3.33-1.35a.25.25,0,0,1,.17,0l3.32,1.35a.22.22,0,0,1,.14.21.23.23,0,0,1-.13.21L12.9,15l-.09,0m-2.74-1.65,2.74,1.18,2.74-1.18-2.74-1.11Z"/>
      <polygon class="cls-1" points="17.59 11.8 14.71 13.03 14.71 9.73 17.59 8.5 17.59 11.8"/>
      <path class="cls-2" d="M14.71,13.23a.2.2,0,0,1-.11,0,.2.2,0,0,1-.09-.17V9.73a.21.21,0,0,1,.12-.18l2.89-1.23a.19.19,0,0,1,.18,0,.2.2,0,0,1,.09.17v3.3a.21.21,0,0,1-.12.18l-2.89,1.23-.07,0m.19-3.37v2.88l2.5-1.07V8.79Zm2.69,1.94h0Z"/>
      <polygon class="cls-1" points="11.82 11.8 14.71 13.03 14.71 9.73 11.82 8.5 11.82 11.8"/>
      <path class="cls-2" d="M14.71,13.23l-.08,0L11.74,12a.21.21,0,0,1-.12-.18V8.5a.2.2,0,0,1,.09-.17.19.19,0,0,1,.18,0l2.89,1.23a.21.21,0,0,1,.12.18V13a.2.2,0,0,1-.09.17.19.19,0,0,1-.1,0M12,11.67l2.5,1.07V9.86L12,8.79Z"/>
      <polygon class="cls-1" points="14.71 7.32 11.82 8.5 14.71 9.73 17.59 8.5 14.71 7.32"/>
      <path class="cls-2" d="M14.71,9.93l-.08,0L11.74,8.68a.21.21,0,0,1-.12-.19.22.22,0,0,1,.12-.18l2.89-1.17a.2.2,0,0,1,.15,0l2.89,1.17a.22.22,0,0,1,.12.18.21.21,0,0,1-.12.19L14.78,9.91l-.07,0M12.33,8.5l2.38,1,2.37-1-2.37-1Z"/>
      <path class="cls-3" d="M30.33,15.36a15,15,0,1,1-15-15A15,15,0,0,1,30.33,15.36Z"/>
    </g>
  </g>
</svg>
