<svg xmlns="http://www.w3.org/2000/svg" viewBox="0 0 30.72 30.72">
  <defs>
    <style>
      .cls-1, .cls-3, .cls-4 {
        fill: none;
        stroke-miterlimit: 10;
      }

      .cls-1 {
        stroke: #251f45;
        stroke-width: 0.78px;
      }

      .cls-2 {
        fill: #2c2854;
      }

      .cls-3, .cls-4 {
        stroke: #fff;
        stroke-width: 0.04px;
      }

      .cls-4 {
        stroke-dasharray: 0.1 0.1;
      }

      .cls-5 {
        fill: #13120d;
      }
    </style>
  </defs>
  <g id="Capa_2" data-name="Capa 2">
    <g id="Page_1" data-name="Page 1">
      <path class="cls-1" d="M30.33,15.36a15,15,0,1,1-15-15A15,15,0,0,1,30.33,15.36Z"/>
      <path class="cls-2" d="M9.26,22.11H7.05V8.46H23.69V22.14h-2c-.06,0-.14-.13-.16-.21a1.37,1.37,0,0,1,0-.35V10.68H9.26Z"/>
      <path class="cls-2" d="M9.63,12.93H21.07v2.48H9.63Zm.38.31c-.11.43.17.36.38.36h10a1.25,1.25,0,0,0,.39-.15c-.13-.07-.26-.21-.39-.21H10.26l-.25,0m10.7,1.85c.12-.46-.18-.37-.38-.37H10.41a1.2,1.2,0,0,0-.27,0c-.06,0-.16.12-.15.16a.31.31,0,0,0,.17.2,1,1,0,0,0,.3,0H20.71ZM10,14c0,.43.27.33.48.33h9.82c.08,0,.16,0,.22,0a1.37,1.37,0,0,0,.27-.22L20.7,14Z"/>
      <path class="cls-2" d="M9.63,11.05H21.07v1.41H9.63ZM20.7,12.11c.11-.73.1-.75-.46-.75-3.3,0-6.59,0-9.89,0-.32,0-.4.09-.38.36s0,.25,0,.38Z"/>
      <line class="cls-3" x1="21.03" y1="11.34" x2="20.98" y2="11.34"/>
      <line class="cls-4" x1="20.87" y1="11.34" x2="9.79" y2="11.34"/>
      <line class="cls-3" x1="9.73" y1="11.34" x2="9.68" y2="11.34"/>
      <rect class="cls-5" x="15.2" y="17.71" width="0.37" height="2.52"/>
      <polygon class="cls-5" points="16.04 18.63 15.38 17.97 14.73 18.63 14.46 18.37 15.38 17.45 16.3 18.37 16.04 18.63"/>
    </g>
  </g>
</svg>
