<svg xmlns="http://www.w3.org/2000/svg" viewBox="0 0 30.72 30.72">
  <defs>
    <style>
      .cls-1 {
        fill: #251f45;
        fill-rule: evenodd;
      }

      .cls-2 {
        fill: none;
        stroke: #251f45;
        stroke-miterlimit: 10;
        stroke-width: 0.78px;
      }
    </style>
  </defs>
  <g id="Capa_2" data-name="Capa 2">
    <g id="Page_1" data-name="Page 1">
      <path class="cls-1" d="M9.18,21.88c1.1-.59,3.53-2.2,4.71-2.88.76-.51.59-.77.59-2l.17-4.92V7a5.31,5.31,0,0,0-1.6.93L9.86,9.82c-.84.6-.68.51-.68,1.87Zm12.36,0c.08-.85,0-9.42,0-11,0-.76-1-1.27-1.77-1.78L16.92,7c-.17-.08-.09-.08-.17.17-.09.42,0,7.64-.17,8.92v1.7c0,.93.42,1,1.68,2a33.65,33.65,0,0,0,3.28,2.12M9.6,21.12v-9c0-1.45-.16-1.53.42-1.87.76-.43,3.79-2.38,4.21-2.47,0,1.45.08,3.06,0,4.51,0,.68-.09,1.44-.09,2.2a18.17,18.17,0,0,1-.08,2.13c-.25,2,.75,1.19-1.68,2.8-.51.26-.93.6-1.43.85a12.54,12.54,0,0,1-1.35.85M17,17.47c0-.51.08-1,.08-1.62a48.43,48.43,0,0,1,.09-5c.25-3.4-1.09-3.9,2.18-1.53.42.26.67.43,1,.68s.76.34.76.94c.08,1.1,0,2.29,0,3.39V21c-.34,0-.42-.17-.59-.34l-2.69-1.78c-.84-.59-.84-.42-.84-1.44m5,4.84h2.61V10.93c0-.26-.09-.51-.34-.51H22Zm-16,0H8.6l.08-11.38c0-.26-.08-.51-.34-.51H6.08Zm7.39.25c-.67,0-.17,0-.17-1.1a3.88,3.88,0,0,1,1.09.25c-.25.43-.08.17-.58.17a7.82,7.82,0,0,1,.58.85,2.1,2.1,0,0,1,.34,1c-.5-.08,0,0-.5-.93a2.79,2.79,0,0,0-.68-.77Zm3.11-.93a3.24,3.24,0,0,0,1-.17,4.53,4.53,0,0,1,.17,1.1H17.5a1.3,1.3,0,0,1-.08-.59c-.92.59-.76,1.61-1.18,1.78-.16-.42.68-1.61.84-1.87l-.5.09Z"/>
      <path class="cls-2" d="M30.33,15.36a15,15,0,1,1-15-15A15,15,0,0,1,30.33,15.36Z"/>
    </g>
  </g>
</svg>
