<svg xmlns="http://www.w3.org/2000/svg" viewBox="0 0 30.72 30.72">
  <defs>
    <style>
      .cls-1 {
        fill: none;
        stroke: #251f45;
        stroke-miterlimit: 10;
        stroke-width: 0.78px;
      }

      .cls-2 {
        fill: #2e2750;
      }

      .cls-3 {
        fill: #1f1b14;
      }
    </style>
  </defs>
  <g id="Capa_2" data-name="Capa 2">
    <g id="Page_1" data-name="Page 1">
      <path class="cls-1" d="M30.33,15.36a15,15,0,1,1-15-15A15,15,0,0,1,30.33,15.36Z"/>
      <rect class="cls-2" x="7.03" y="9.21" width="2.31" height="13.04"/>
      <rect class="cls-2" x="20.59" y="9.22" width="2.31" height="13.04"/>
      <path class="cls-2" d="M17.33,22.25H9.82v-13H17.3m-.37.32H10.47c-.39,0-.32.26-.32.49,0,3.79,0,7.57,0,11.36,0,.39.11.51.51.51,1.94,0,3.88,0,5.83,0l.45,0Z"/>
      <rect class="cls-3" x="17.91" y="14.65" width="1.54" height="0.26"/>
      <polygon class="cls-3" points="18.99 15.43 18.81 15.25 19.27 14.78 18.81 14.32 18.99 14.13 19.64 14.78 18.99 15.43"/>
      <rect class="cls-3" x="14.68" y="14.65" width="1.54" height="0.26"/>
      <polygon class="cls-3" points="15.15 15.43 14.5 14.78 15.15 14.13 15.33 14.32 14.87 14.78 15.33 15.25 15.15 15.43"/>
    </g>
  </g>
</svg>
