<svg xmlns="http://www.w3.org/2000/svg" viewBox="0 0 30.72 30.72">
  <defs>
    <style>
      .cls-1 {
        fill: #2e2750;
      }

      .cls-2, .cls-3, .cls-5 {
        fill: none;
        stroke-miterlimit: 10;
      }

      .cls-2, .cls-3 {
        stroke: #fff;
        stroke-width: 0.04px;
      }

      .cls-3 {
        stroke-dasharray: 0.11 0.11;
      }

      .cls-4 {
        fill: #1f1b14;
      }

      .cls-5 {
        stroke: #251f45;
        stroke-width: 0.78px;
      }
    </style>
  </defs>
  <g id="Capa_2" data-name="Capa 2">
    <g id="Page_1" data-name="Page 1">
      <polygon class="cls-1" points="21.55 10.69 9.2 10.69 9.2 22.25 6.96 22.25 6.96 8.47 23.76 8.47 23.76 22.25 21.55 22.25 21.55 10.69"/>
      <path class="cls-1" d="M21.13,16.29H9.6V11.08H21.13Zm-.34-2.6H9.94v2.23H20.79Zm-10.85-.8H20.78V11.44H9.94Z"/>
      <line class="cls-2" x1="21.13" y1="16.29" x2="21.07" y2="16.29"/>
      <line class="cls-3" x1="20.97" y1="16.29" x2="9.7" y2="16.29"/>
      <line class="cls-2" x1="9.65" y1="16.29" x2="9.59" y2="16.29"/>
      <line class="cls-2" x1="21.13" y1="11.07" x2="21.07" y2="11.07"/>
      <line class="cls-3" x1="20.97" y1="11.07" x2="9.7" y2="11.07"/>
      <line class="cls-2" x1="9.65" y1="11.07" x2="9.59" y2="11.07"/>
      <line class="cls-2" x1="21.13" y1="13.32" x2="21.07" y2="13.32"/>
      <line class="cls-3" x1="20.97" y1="13.32" x2="9.7" y2="13.32"/>
      <line class="cls-2" x1="9.65" y1="13.32" x2="9.59" y2="13.32"/>
      <line class="cls-2" x1="9.01" y1="22.25" x2="9.01" y2="22.2"/>
      <line class="cls-3" x1="9.01" y1="22.09" x2="9.01" y2="10.82"/>
      <line class="cls-2" x1="9.01" y1="10.77" x2="9.01" y2="10.72"/>
      <rect class="cls-4" x="14.88" y="17.81" width="0.38" height="2.56"/>
      <polygon class="cls-4" points="15.73 18.74 15.06 18.07 14.39 18.74 14.13 18.47 15.06 17.54 16 18.47 15.73 18.74"/>
      <path class="cls-5" d="M30.33,15.36a15,15,0,1,1-15-15A15,15,0,0,1,30.33,15.36Z"/>
    </g>
  </g>
</svg>
