<svg xmlns="http://www.w3.org/2000/svg" viewBox="0 0 30.72 30.72">
  <defs>
    <style>
      .cls-1, .cls-2, .cls-4 {
        fill: none;
      }

      .cls-1 {
        stroke: #2e2750;
        stroke-width: 0.49px;
      }

      .cls-1, .cls-4 {
        stroke-miterlimit: 10;
      }

      .cls-2 {
        stroke: #13120d;
        stroke-linecap: round;
        stroke-linejoin: round;
        stroke-width: 0.43px;
      }

      .cls-3 {
        fill: #2e2750;
      }

      .cls-4 {
        stroke: #251f45;
        stroke-width: 0.78px;
      }
    </style>
  </defs>
  <g id="Capa_2" data-name="Capa 2">
    <g id="Page_1" data-name="Page 1">
      <path class="cls-1" d="M8.78,8.59l2.75,4.95a1,1,0,0,0,.91.54h1.87"/>
      <path class="cls-1" d="M16.43,13.88V10.72a.69.69,0,0,0-.69-.69h-1"/>
      <path class="cls-1" d="M19.08,16.32h2.19a.93.93,0,0,0,.93-.93v-3"/>
      <line class="cls-1" x1="18.87" y1="18.24" x2="21.9" y2="18.24"/>
      <path class="cls-2" d="M19.88,22v-.91a.73.73,0,0,0-.73-.73H16.59"/>
      <path class="cls-1" d="M12.06,18.16h-1.9a.63.63,0,0,0-.62.63v.55"/>
      <line class="cls-1" x1="11.94" y1="16.24" x2="9.11" y2="16.24"/>
      <path class="cls-1" d="M9.06,7.87A.88.88,0,1,1,8.18,7,.89.89,0,0,1,9.06,7.87Z"/>
      <path class="cls-1" d="M14.62,10a.88.88,0,1,1-.88-.88A.88.88,0,0,1,14.62,10Z"/>
      <path class="cls-1" d="M23.11,11.33a.89.89,0,1,1-.89-.89A.89.89,0,0,1,23.11,11.33Z"/>
      <path class="cls-1" d="M23.67,18.29a.88.88,0,1,1-.88-.88A.87.87,0,0,1,23.67,18.29Z"/>
      <path class="cls-1" d="M20.8,22.86a.89.89,0,1,1-.88-.89A.89.89,0,0,1,20.8,22.86Z"/>
      <path class="cls-1" d="M10.32,20.32a.89.89,0,1,1-.88-.88A.88.88,0,0,1,10.32,20.32Z"/>
      <path class="cls-1" d="M8.81,16.28a.88.88,0,1,1-.88-.88A.88.88,0,0,1,8.81,16.28Z"/>
      <path class="cls-3" d="M19.77,16.28a.89.89,0,1,1-.88-.88.89.89,0,0,1,.88.88"/>
      <path class="cls-3" d="M19.73,18.37a.88.88,0,1,1-.88-.88.88.88,0,0,1,.88.88"/>
      <path class="cls-3" d="M17.44,20.44a.89.89,0,1,1-.89-.89.89.89,0,0,1,.89.89"/>
      <path class="cls-3" d="M12.9,18.34a.88.88,0,1,1-.88-.88.87.87,0,0,1,.88.88"/>
      <path class="cls-3" d="M12.9,16.38A.88.88,0,1,1,12,15.5a.87.87,0,0,1,.88.88"/>
      <path class="cls-3" d="M15.24,14.18a.89.89,0,1,1-.88-.88.88.88,0,0,1,.88.88"/>
      <path class="cls-3" d="M17.27,14.18a.89.89,0,1,1-.89-.88.88.88,0,0,1,.89.88"/>
      <rect class="cls-1" x="13.37" y="15.47" width="3.88" height="3.75" rx="0.76"/>
      <path class="cls-4" d="M30.33,15.36a15,15,0,1,1-15-15A15,15,0,0,1,30.33,15.36Z"/>
    </g>
  </g>
</svg>
