<svg xmlns="http://www.w3.org/2000/svg" xmlns:xlink="http://www.w3.org/1999/xlink" viewBox="0 0 348.22 130.61">
  <defs>
    <style>
      .cls-1 {
        fill: #fff;
      }

      .cls-2 {
        fill: url(#Degradado_sin_nombre_3);
      }

      .cls-3 {
        fill: none;
        stroke: #fff;
        stroke-miterlimit: 10;
        stroke-width: 0.89px;
      }
    </style>
    <linearGradient id="Degradado_sin_nombre_3" data-name="Degradado sin nombre 3" x1="19.48" y1="113.22" x2="66.9" y2="33.95" gradientUnits="userSpaceOnUse">
      <stop offset="0" stop-color="#2a4596"/>
      <stop offset="1" stop-color="#3da9e0"/>
    </linearGradient>
  </defs>
  <g id="Capa_2" data-name="Capa 2">
    <g id="Capa_1-2" data-name="Capa 1">
      <path class="cls-1" d="M347.15,60.74a2.18,2.18,0,0,1,1.07,1.9,2.25,2.25,0,0,1-.29,1.12,2.17,2.17,0,0,1-.8.79,2.2,2.2,0,0,1-2.22,0,2.14,2.14,0,0,1-.79-.79,2.24,2.24,0,0,1-.29-1.11,2.19,2.19,0,0,1,1.08-1.9,2.34,2.34,0,0,1,2.24,0Zm-.23,3.46a1.67,1.67,0,0,0,.64-.65,1.77,1.77,0,0,0,.24-.91,1.84,1.84,0,0,0-.23-.91,1.59,1.59,0,0,0-.63-.63,1.74,1.74,0,0,0-.91-.24,1.77,1.77,0,0,0-.91.24,1.64,1.64,0,0,0-.63.65,1.83,1.83,0,0,0-.23.9,1.86,1.86,0,0,0,.23.91,1.71,1.71,0,0,0,.63.65,1.83,1.83,0,0,0,.9.23A1.73,1.73,0,0,0,346.92,64.2Zm.14-1.45a.77.77,0,0,1-.34.3l.53.81h-.65l-.45-.7h-.43v.7h-.65V61.45h1.05a1.17,1.17,0,0,1,.78.23.78.78,0,0,1,.28.62A.79.79,0,0,1,347.06,62.75Zm-1-.07a.49.49,0,0,0,.34-.1.34.34,0,0,0,.12-.28.35.35,0,0,0-.12-.28.55.55,0,0,0-.34-.09h-.37v.75Z"/>
      <path class="cls-1" d="M65.85,0,62.43,14.28l-7.2,30.13L53.42,52h0l-1.6,6.71-.19.77H11.71L18.52,52H41a6,6,0,0,0,5.8-4.58l5.07-21.19L55.3,11.94Z"/>
      <path class="cls-2" d="M71.19,76.52,47.57,103.45l5.6-25.77H45.51L44.34,83l-7,32L34,130.49l.23.12,9.83-11.12L85.76,72.31l6.61-7.48H6.61L0,72.31H69.28A2.54,2.54,0,0,1,71.19,76.52Z"/>
      <g>
        <path class="cls-3" d="M74.78,46.74l-2,9.94-6.92,0,4.64-22.59,6.93,0-1.46,7,9.53-.06a1.58,1.58,0,0,0,1.2-.37,3.12,3.12,0,0,0,.56-1.42l1.29-6.07a4.76,4.76,0,0,0,.08-.63.67.67,0,0,0-.3-.66,2,2,0,0,0-.93-.16l-16.46.11,1.24-6,19.33-.12a5.29,5.29,0,0,1,3.33.8,3.12,3.12,0,0,1,1,2.55,7.5,7.5,0,0,1-.06.93c-.05.32-.1.68-.16,1.07L93.52,41.24a7.57,7.57,0,0,1-2,4.07,6.18,6.18,0,0,1-4.36,1.35Z"/>
        <path class="cls-3" d="M99.91,56.52a5.4,5.4,0,0,1-3.38-.8,3.13,3.13,0,0,1-1-2.55c0-.3,0-.62,0-1a7.22,7.22,0,0,1,.18-1.05L101,25.65l6.93,0L103.14,48.7a3.77,3.77,0,0,0-.13.82.66.66,0,0,0,.32.66,2.37,2.37,0,0,0,1,.15l9.12,0a2.33,2.33,0,0,0,1.32-.31,2.28,2.28,0,0,0,.63-1.35l4.73-23.09,6.66,0L121.62,51a7.58,7.58,0,0,1-2,4.07,6.21,6.21,0,0,1-4.34,1.35Z"/>
        <path class="cls-3" d="M125.3,56.36l4.64-22.59,7.16-.05-1.07,5,11.35-.07-1,4.93L135,43.67l-1.33,6.48,15.72-.1-1.23,6.16Zm5.08-24.88,1.24-6,22.88-.14-1.24,6Z"/>
        <path class="cls-3" d="M171.65,56.07l2-10.09c0-.15,0-.28.07-.38s0-.21,0-.3c0-.49-.43-.73-1.28-.72l-10,.06-2.35,11.5-6.93,0,4.65-22.59,6.93,0-1.24,6,9.48-.06a2,2,0,0,0,1.34-.33,2.6,2.6,0,0,0,.56-1.28l1.07-5c0-.15,0-.29.06-.41a1.89,1.89,0,0,0,0-.32.78.78,0,0,0-.32-.73,2.46,2.46,0,0,0-1.1-.17l-16.36.1,1.24-6,19.6-.13a5.44,5.44,0,0,1,3.42.83,3.1,3.1,0,0,1,1.07,2.56,5.27,5.27,0,0,1-.07.87c0,.31-.09.62-.15,1l-1.37,6.71a5.43,5.43,0,0,1-1.8,3.36,6,6,0,0,1-2.91,1.18,5.51,5.51,0,0,1,2.46.65,2.14,2.14,0,0,1,1,2v.48a1.67,1.67,0,0,1-.09.52L178.58,56Z"/>
        <path class="cls-3" d="M195.62,55.92l-6.93,0,5.09-24.83-7.47.05,1.23-6.07L209.47,25l-1.24,6.07-7.52,0Z"/>
        <path class="cls-3" d="M222.56,55.75,222.21,51,211.09,51l-2.34,4.8-6.7,0,15.85-31,9.07-.05,2.56,30.84ZM220.9,31.1l-7.38,14.82,8.43-.06Z"/>
        <path class="cls-3" d="M232.68,55.69l1.23-6,16.46-.1a1.81,1.81,0,0,0,1.2-.33,2,2,0,0,0,.57-1.18l.88-4.29a2.33,2.33,0,0,0,0-.51c0-.54-.4-.81-1.19-.81l-12.17.08a3.87,3.87,0,0,1-2.71-.78,3,3,0,0,1-.86-2.25,7.89,7.89,0,0,1,.13-1.33l1.63-8a7.64,7.64,0,0,1,2-4.07,6.25,6.25,0,0,1,4.41-1.35l19.19-.12-1.2,5.89-16.36.1a1.45,1.45,0,0,0-1,.32,2.43,2.43,0,0,0-.49,1.15l-.84,4.06c0,.12,0,.23-.07.32a2.45,2.45,0,0,0,0,.27c0,.46.34.68,1,.68l12.35-.08a3.84,3.84,0,0,1,2.76.8,3.06,3.06,0,0,1,.86,2.28,6.69,6.69,0,0,1-.13,1.28l-1.72,8.44a7.75,7.75,0,0,1-2,4.07,6.32,6.32,0,0,1-4.37,1.35Z"/>
      </g>
      <g>
        <path class="cls-1" d="M109.83,90.77l-.26-3.88-15,0-3.36,3.9H84.11l22.1-25h7.35l1.92,25Zm-1.22-20-10.43,12h11.21Z"/>
        <path class="cls-1" d="M121.8,90.77a4.37,4.37,0,0,1-2.73-.66,2.52,2.52,0,0,1-.82-2.07,7,7,0,0,1,0-.78,4.61,4.61,0,0,1,.15-.85l4.36-20.65h5.61l-4,18.69a3.33,3.33,0,0,0-.11.67c0,.27.08.45.26.53a2,2,0,0,0,.85.13h7.39a1.86,1.86,0,0,0,1.07-.24,1.8,1.8,0,0,0,.51-1.09l4-18.69h5.39l-4.36,20.65a6.16,6.16,0,0,1-1.64,3.29,5.09,5.09,0,0,1-3.53,1.07Z"/>
        <path class="cls-1" d="M153.09,90.77h-5.61l4.25-20.1h-6.06l1-4.91h17.77l-1,4.91h-6.1Z"/>
        <path class="cls-1" d="M166.32,90.77a4.42,4.42,0,0,1-2.72-.66,2.48,2.48,0,0,1-.83-2,8.08,8.08,0,0,1,.22-1.66l3.44-16.29a6.11,6.11,0,0,1,1.63-3.29,5,5,0,0,1,3.54-1.07h12.45a4.31,4.31,0,0,1,2.7.66,2.54,2.54,0,0,1,.81,2.07,7.11,7.11,0,0,1-.05.78c0,.27-.08.55-.13.85l-3.44,16.29a6.16,6.16,0,0,1-1.64,3.29,5.09,5.09,0,0,1-3.53,1.07Zm15-18.69c0-.13,0-.24,0-.34s0-.18,0-.26c0-.56-.43-.85-1.29-.85h-7a1.5,1.5,0,0,0-1.05.3,2.34,2.34,0,0,0-.5,1.15l-2.66,12.45a2.78,2.78,0,0,0-.07.48c0,.51.35.77,1.07.77h7a2.12,2.12,0,0,0,1.26-.29,1.7,1.7,0,0,0,.52-1Z"/>
        <path class="cls-1" d="M208.14,90.77l3.22-15.18-9.28,15.18h-4.39l-3-15.18-3.21,15.18h-4.66l5.29-25h6.06l3.25,17.4,10.79-17.4H218l-5.28,25Z"/>
        <path class="cls-1" d="M232,90.77l-.26-3.88h-9l-1.93,3.88h-5.43l13-25h7.35l1.92,25Zm-1.22-20-6.06,12h6.84Zm-2.22-7.35,7.13-7.54h4.18l-8,7.54Z"/>
        <path class="cls-1" d="M250.89,90.77h-5.62l4.25-20.1h-6.06l1-4.91h17.77l-1,4.91h-6.09Z"/>
        <path class="cls-1" d="M260.12,90.77l5.29-25H271l-5.28,25Z"/>
        <path class="cls-1" d="M274.05,90.77a4.3,4.3,0,0,1-2.69-.66,2.52,2.52,0,0,1-.82-2.07,6.56,6.56,0,0,1,0-.76,5.3,5.3,0,0,1,.15-.87l3.43-16.29a6.06,6.06,0,0,1,1.65-3.29,5,5,0,0,1,3.53-1.07h14.07l-1,5H281.07a1.92,1.92,0,0,0-1.2.27,2.21,2.21,0,0,0-.5,1.13l-2.62,12.19c0,.13,0,.23-.06.32a2.26,2.26,0,0,0,0,.27.67.67,0,0,0,.25.59,1.73,1.73,0,0,0,1,.19h11.38l-1.07,5.06Z"/>
        <path class="cls-1" d="M306.82,90.77l-.25-3.88h-9l-1.92,3.88H290.2l13-25h7.36l1.92,25Zm-1.22-20-6.05,12h6.83Z"/>
        <path class="cls-1" d="M315,90.77l1-4.88H329.4a1.49,1.49,0,0,0,1-.26,1.65,1.65,0,0,0,.46-1l.74-3.47a2.15,2.15,0,0,0,0-.41q0-.66-1-.66h-9.86a3.14,3.14,0,0,1-2.2-.65,2.38,2.38,0,0,1-.68-1.83,5.78,5.78,0,0,1,.11-1.07l1.37-6.46A6.18,6.18,0,0,1,321,66.83a5.08,5.08,0,0,1,3.58-1.07h15.56l-1,4.76H325.89a1.17,1.17,0,0,0-.85.26,1.93,1.93,0,0,0-.41.93l-.7,3.28c0,.1,0,.19-.06.26a1.7,1.7,0,0,0,0,.22c0,.37.27.56.81.56h10a3.16,3.16,0,0,1,2.24.66,2.49,2.49,0,0,1,.68,1.85,5.67,5.67,0,0,1-.11,1l-1.44,6.83a6.15,6.15,0,0,1-1.63,3.29,5,5,0,0,1-3.54,1.07Z"/>
      </g>
      <g>
        <path class="cls-1" d="M98.71,101.18l-.18,1H95.16l-.42,2.41h2.62l-.18,1H94.55l-.61,3.51h-1.3l1.4-7.93Z"/>
        <path class="cls-1" d="M105.87,107.49h-3.32l-.86,1.62h-1.36l4.25-8h1.51l1.43,8h-1.37Zm-.17-1-.65-3.73-2,3.73Z"/>
        <path class="cls-1" d="M117.11,104.36A2.54,2.54,0,0,1,116,105a1.4,1.4,0,0,1,.87.54,1.74,1.74,0,0,1,.34,1.05,1.47,1.47,0,0,1,0,.36,2.31,2.31,0,0,1-.5,1.09,2.81,2.81,0,0,1-1,.76,3.52,3.52,0,0,1-1.44.28H111l1.4-7.93h3a2.58,2.58,0,0,1,1.66.46,1.52,1.52,0,0,1,.58,1.21,1.61,1.61,0,0,1,0,.37A2,2,0,0,1,117.11,104.36Zm-1.17,2.22a.92.92,0,0,0-.35-.75,1.41,1.41,0,0,0-.91-.27H113l-.45,2.53h1.76a1.78,1.78,0,0,0,1.1-.33,1.38,1.38,0,0,0,.53-.92A1.85,1.85,0,0,0,115.94,106.58Zm.41-3.44a.84.84,0,0,0-.31-.7,1.39,1.39,0,0,0-.87-.25h-1.61l-.41,2.35h1.61a1.71,1.71,0,0,0,1.06-.31,1.3,1.3,0,0,0,.51-.85C116.34,103.27,116.35,103.19,116.35,103.14Z"/>
        <path class="cls-1" d="M126.47,101.71a1.73,1.73,0,0,1,.62,1.39,3.15,3.15,0,0,1,0,.45,2.88,2.88,0,0,1-.71,1.4,2.81,2.81,0,0,1-1.53.87l1.38,3.29h-1.55l-1.26-3.17h-1l-.56,3.17h-1.3l1.4-7.93h2.74A2.66,2.66,0,0,1,126.47,101.71Zm-.73,1.51a.94.94,0,0,0-.31-.76,1.44,1.44,0,0,0-1-.27H123l-.48,2.72H124a1.76,1.76,0,0,0,1.17-.37,1.57,1.57,0,0,0,.54-1A1.84,1.84,0,0,0,125.74,103.22Z"/>
        <path class="cls-1" d="M132.72,101.18l-1.4,7.93H130l1.41-7.93Z"/>
        <path class="cls-1" d="M136.49,103a5,5,0,0,1,1.73-1.45,4.72,4.72,0,0,1,2.13-.52,3.68,3.68,0,0,1,2.15.62,2.78,2.78,0,0,1,1.12,1.77h-1.56a1.7,1.7,0,0,0-.71-.9,2.29,2.29,0,0,0-1.21-.3,3.12,3.12,0,0,0-2.61,1.36,3.57,3.57,0,0,0-.61,1.51,4.11,4.11,0,0,0-.06.63,2.21,2.21,0,0,0,.62,1.64,2.25,2.25,0,0,0,1.64.6,3,3,0,0,0,1.33-.3,2.63,2.63,0,0,0,1-.9H143a4.55,4.55,0,0,1-1.75,1.76,4.75,4.75,0,0,1-2.36.62,3.75,3.75,0,0,1-1.76-.41,3,3,0,0,1-1.21-1.16,3.29,3.29,0,0,1-.43-1.71,5.3,5.3,0,0,1,.06-.77A4.86,4.86,0,0,1,136.49,103Z"/>
        <path class="cls-1" d="M151.49,107.49h-3.32l-.86,1.62H146l4.25-8h1.51l1.43,8h-1.37Zm-.17-1-.65-3.73-2,3.73Z"/>
        <path class="cls-1" d="M157.84,103a5,5,0,0,1,1.73-1.45,4.71,4.71,0,0,1,2.12-.52,3.69,3.69,0,0,1,2.16.62,2.78,2.78,0,0,1,1.12,1.77h-1.56a1.7,1.7,0,0,0-.71-.9,2.29,2.29,0,0,0-1.21-.3,3.12,3.12,0,0,0-2.61,1.36,3.57,3.57,0,0,0-.61,1.51,4.11,4.11,0,0,0-.06.63,2.21,2.21,0,0,0,.62,1.64,2.25,2.25,0,0,0,1.64.6,3,3,0,0,0,1.33-.3,2.63,2.63,0,0,0,1-.9h1.57a4.62,4.62,0,0,1-1.75,1.76,4.75,4.75,0,0,1-2.36.62,3.75,3.75,0,0,1-1.76-.41,3,3,0,0,1-1.21-1.16,3.29,3.29,0,0,1-.43-1.71,5.3,5.3,0,0,1,.06-.77A4.75,4.75,0,0,1,157.84,103Z"/>
        <path class="cls-1" d="M170.48,101.18l-1.41,7.93h-1.3l1.4-7.93Z"/>
        <path class="cls-1" d="M175,108.77a3,3,0,0,1-1.19-1.19,3.56,3.56,0,0,1-.42-1.74,4.86,4.86,0,0,1,.61-2.44,4.41,4.41,0,0,1,1.69-1.71,4.79,4.79,0,0,1,2.42-.62,3.55,3.55,0,0,1,1.78.43,2.91,2.91,0,0,1,1.18,1.18,3.39,3.39,0,0,1,.43,1.73,4.93,4.93,0,0,1-.62,2.45,4.38,4.38,0,0,1-1.68,1.71,4.83,4.83,0,0,1-2.43.62A3.62,3.62,0,0,1,175,108.77Zm3.61-1.24a3.19,3.19,0,0,0,1.13-1.28,3.85,3.85,0,0,0,.41-1.75,2.26,2.26,0,0,0-.59-1.64,2.19,2.19,0,0,0-1.64-.6,3,3,0,0,0-1.66.47,3.16,3.16,0,0,0-1.12,1.28,3.82,3.82,0,0,0-.4,1.75,2.22,2.22,0,0,0,.59,1.65,2.16,2.16,0,0,0,1.62.6A2.92,2.92,0,0,0,178.56,107.53Zm1-8.15-2.75,1.25.17-1,2.77-1.39Z"/>
        <path class="cls-1" d="M190.82,109.11h-1.3l-2.87-5.93-1.05,5.93h-1.3l1.4-8H187l2.87,5.92,1-5.92h1.3Z"/>
        <path class="cls-1" d="M203.05,102.18l-.43,2.41h2.74l-.17,1h-2.74l-.44,2.5h3.08l-.18,1h-4.39l1.41-8h4.38l-.18,1Z"/>
        <path class="cls-1" d="M217.2,101.18l-1.4,7.93h-1.3l1.4-7.93Z"/>
        <path class="cls-1" d="M226.31,109.11H225l-2.86-5.93-1.05,5.93h-1.31l1.41-8h1.3l2.88,5.92,1-5.92h1.3Z"/>
        <path class="cls-1" d="M231.87,109a2.16,2.16,0,0,1-.92-.69,1.71,1.71,0,0,1-.34-1.07,1.76,1.76,0,0,1,0-.28h1.29a1,1,0,0,0,.31.87,1.38,1.38,0,0,0,1,.35,1.88,1.88,0,0,0,1.11-.29,1,1,0,0,0,.4-.84.88.88,0,0,0-.2-.57,1.81,1.81,0,0,0-.5-.39c-.2-.11-.48-.23-.84-.38a9.59,9.59,0,0,1-1.13-.53,2.31,2.31,0,0,1-.73-.67,1.77,1.77,0,0,1-.3-1.06,2.11,2.11,0,0,1,.37-1.24,2.34,2.34,0,0,1,1-.81,3.54,3.54,0,0,1,1.45-.29,3.33,3.33,0,0,1,1.4.27,2,2,0,0,1,.89.75,2,2,0,0,1,.27,1.14h-1.37a.88.88,0,0,0-.29-.78,1.33,1.33,0,0,0-.95-.32,1.69,1.69,0,0,0-1.06.31,1,1,0,0,0-.39.81.85.85,0,0,0,.19.56,2.06,2.06,0,0,0,.51.4q.31.17.84.39a10.59,10.59,0,0,1,1.13.57,2.39,2.39,0,0,1,.74.68,1.82,1.82,0,0,1,.31,1.06,2,2,0,0,1-.37,1.18,2.43,2.43,0,0,1-1,.81,3.77,3.77,0,0,1-1.51.29A3.65,3.65,0,0,1,231.87,109Z"/>
        <path class="cls-1" d="M246,101.18l-.18,1h-2.11l-1.23,6.92h-1.3l1.22-6.92h-2.12l.18-1Z"/>
        <path class="cls-1" d="M253.22,107.49H249.9l-.86,1.62h-1.35l4.24-8h1.51l1.44,8h-1.37Zm-.17-1-.65-3.73-2,3.73Z"/>
        <path class="cls-1" d="M259.88,108.12h2.68l-.18,1h-4l1.41-7.93h1.3Z"/>
        <path class="cls-1" d="M270.82,107.49h-3.33l-.85,1.62h-1.36l4.25-8H271l1.44,8H271.1Zm-.18-1-.65-3.73-2,3.73Z"/>
        <path class="cls-1" d="M277.17,103a5,5,0,0,1,1.72-1.45,4.72,4.72,0,0,1,2.13-.52,3.66,3.66,0,0,1,2.15.62,2.8,2.8,0,0,1,1.13,1.77h-1.57a1.68,1.68,0,0,0-.7-.9,2.29,2.29,0,0,0-1.21-.3,3.19,3.19,0,0,0-1.47.35,3.23,3.23,0,0,0-1.14,1,3.44,3.44,0,0,0-.61,1.51,4.11,4.11,0,0,0-.06.63,2.17,2.17,0,0,0,.62,1.64,2.24,2.24,0,0,0,1.64.6,2.91,2.91,0,0,0,1.32-.3,2.59,2.59,0,0,0,1-.9h1.56a4.53,4.53,0,0,1-1.74,1.76,4.76,4.76,0,0,1-2.37.62,3.7,3.7,0,0,1-1.75-.41,3,3,0,0,1-1.21-1.16,3.3,3.3,0,0,1-.44-1.71,5.37,5.37,0,0,1,.07-.77A4.75,4.75,0,0,1,277.17,103Z"/>
        <path class="cls-1" d="M289.8,101.18l-1.4,7.93h-1.3l1.4-7.93Z"/>
        <path class="cls-1" d="M294.28,108.77a3,3,0,0,1-1.19-1.19,3.56,3.56,0,0,1-.42-1.74,4.86,4.86,0,0,1,.61-2.44,4.34,4.34,0,0,1,1.69-1.71,4.78,4.78,0,0,1,2.41-.62,3.53,3.53,0,0,1,1.78.43,2.94,2.94,0,0,1,1.19,1.18,3.49,3.49,0,0,1,.42,1.73,4.92,4.92,0,0,1-.61,2.45,4.41,4.41,0,0,1-1.69,1.71,4.82,4.82,0,0,1-2.42.62A3.62,3.62,0,0,1,294.28,108.77Zm3.61-1.24a3.26,3.26,0,0,0,1.13-1.28,3.84,3.84,0,0,0,.4-1.75,2.25,2.25,0,0,0-.58-1.64,2.21,2.21,0,0,0-1.64-.6,3,3,0,0,0-1.66.47,3.19,3.19,0,0,0-1.13,1.28,4,4,0,0,0-.4,1.75,2.27,2.27,0,0,0,.59,1.65,2.18,2.18,0,0,0,1.63.6A2.94,2.94,0,0,0,297.89,107.53Zm1-8.15-2.76,1.25.17-1,2.78-1.39Z"/>
        <path class="cls-1" d="M310.15,109.11h-1.31L306,103.18l-1.05,5.93h-1.3l1.4-8h1.3l2.88,5.92,1-5.92h1.3Z"/>
      </g>
    </g>
  </g>
</svg>
