<svg xmlns="http://www.w3.org/2000/svg" viewBox="0 0 293.06 169.42">
  <g id="Capa_2" data-name="Capa 2">
    <g id="Capa_1-2" data-name="Capa 1">
      <path d="M249,14.25q-99.85-.09-199.69-.32c-5.36,0-5.65,2-5.64,6.4.17,46.92,0,93.84.28,140.77,0,6.57-1.51,8.55-8.17,8.12-10-.64-20-.37-30-.06C1.26,169.29,0,168,0,163.43Q.24,84.35,0,5.27C0,1.54,1-.2,4.86.21,5.91.26,7,.26,8,.21Q146.31.21,284.57.3c2.48,0,5.26-1.13,7.49,1,1.45,3.28.66,6.75.67,10.11.08,23.16,0,46.31.12,69.47,0,5.09-1.38,9.15-5,12.73-9.17,9-18.22,18.24-27.38,27.31a18.83,18.83,0,0,1-4.28,3.47c-3.56,1.89-6.13,1.8-6.08-3.22v-5.53q0-47-.06-93.93C250,19.3,251.11,16.52,249,14.25Z"/>
      <path d="M173.05,105.25c-.19,3.75-2.5,6.68-6.33,6.87-7.09.36-14.19.31-21.28,0-4.69-.19-5.9-3.94-6.09-7.8-.24-5-.07-10-.07-15h0c0-4.73-.13-9.46,0-14.19.12-4.1,1.88-7.23,6.47-7.33,4.84-.09,7.18,2.8,7.31,7.42A147.2,147.2,0,0,1,153,91.76c-.46,5.46,1.82,7,6.77,6.41a24.21,24.21,0,0,1,7.06.08C170.5,99,173.27,101.25,173.05,105.25Z"/>
      <path d="M236.18,84.8c0-12.62,0-12.62-12.23-12.58-3.44,0-6.95-.49-10.27.1-11.1,2-17.57-3.33-21.91-13.61,6.78,0,13.26.22,19.75-.05,8-.33,19.06,3.55,23.31-1.76,4-5,1-15.6,1.51-23.72.28-4.6-1.43-5.79-5.83-5.77q-83.86.21-167.69.06c-4,0-5.72.78-5.5,5.14a195.84,195.84,0,0,1,0,20.56c-.25,4.62,1.41,5.7,5.78,5.6,12.31-.28,24.62-.09,38.14-.09C95.78,67.29,91.35,74,80.43,72.49c-7.31-1-17.79-3.67-21.78,1.2-3.78,4.64-1.23,14.56-1.26,22.16-.07,18,0,18.25,17.74,17.8,6.09-.16,8.24,1.49,9.75,7.6a62.63,62.63,0,0,0,55.7,47.33c26.79,2.23,54.33-12.1,62.68-37,5.26-15.69,12.87-20.35,27.6-17.77,4.15.72,5.52-1.13,5.38-5.26C236,100.63,236.16,92.72,236.18,84.8ZM146.8,154.69c-27.16.38-50.25-22.06-50.42-49-.19-27.44,22.55-50.44,50-50.44,27,0,49.23,22.44,49.47,49.94.21,26.76-21.94,49.12-49,49.5Z"/>
      <path d="M292.13,137.78c.19,8.86.3,17.73.61,26.59.12,3.63-1.1,5-4.93,4.8-9.12-.36-18.26-.24-27.39-.32,1.2-9.39-2-17.65-5.9-26-2.28-4.87.06-9.9,3.43-13.89,8.69-10.26,18.57-19.37,28.2-28.72,1.44-1.4,3.23-3.26,5.48-2.13,2,1,1.1,3.31,1.06,5C292.41,114.69,293.5,126.25,292.13,137.78Z"/>
      <path d="M292.13,137.78V100.17c-11.37,10.6-22.86,20.75-33.62,31.64-3.44,3.49-4.13,8.64-.72,13.74,4.78,7.14,7.64,14.88,2.63,23.3a35.37,35.37,0,0,0-4.71.31c-5.14,1-6.78-.91-6.65-6.17.35-13.7.14-27.42.12-41.13q-.1-53.77-.23-107.57c3.34,2.34,1.72,5.82,1.73,8.72.14,31.34,0,62.68.15,94,0,2.43-1.54,5.93,1.46,7.09,2.35.91,3.82-2.25,5.43-3.84,9.74-9.62,19.28-19.45,29.12-29a14.81,14.81,0,0,0,4.91-11.75c-.13-26.06.14-52.12.27-78.18.35.66,1,1.32,1,2q.08,65.76,0,131.51A10.42,10.42,0,0,1,292.13,137.78Z"/>
      <path d="M173.05,105.25c-.19,3.75-2.5,6.68-6.33,6.87-7.09.36-14.19.31-21.28,0-4.69-.19-5.9-3.94-6.09-7.8-.24-5-.07-10-.07-15h0c0-4.73-.13-9.46,0-14.19.12-4.1,1.88-7.23,6.47-7.33,4.84-.09,7.18,2.8,7.31,7.42A147.2,147.2,0,0,1,153,91.76c-.46,5.46,1.82,7,6.77,6.41a24.21,24.21,0,0,1,7.06.08C170.5,99,173.27,101.25,173.05,105.25Z"/>
      <path d="M173.05,105.25c-.19,3.75-2.5,6.68-6.33,6.87-7.09.36-14.19.31-21.28,0-4.69-.19-5.9-3.94-6.09-7.8-.24-5-.07-10-.07-15h0c0-4.73-.13-9.46,0-14.19.12-4.1,1.88-7.23,6.47-7.33,4.84-.09,7.18,2.8,7.31,7.42A147.2,147.2,0,0,1,153,91.76c-.46,5.46,1.82,7,6.77,6.41a24.21,24.21,0,0,1,7.06.08C170.5,99,173.27,101.25,173.05,105.25Z"/>
    </g>
  </g>
</svg>
