<svg xmlns="http://www.w3.org/2000/svg" viewBox="0 0 262.5 191.8">
  <g id="Capa_2" data-name="Capa 2">
    <g id="Capa_1-2" data-name="Capa 1">
      <path d="M262.5,8.74c0-6.65-1.12-8.77-8.41-8.74Q131.48.45,8.89,0C2.09,0,0,1.52,0,8.67Q.48,96.45.06,184.25c0,5.86,1.35,7.55,7.33,7.5,41.21-.25,82.42-.12,123.64-.12,41.4,0,82.78-.13,124.18.17,6.08,0,7.29-1.69,7.26-7.47Q262.1,96.52,262.5,8.74ZM50,64.24c.08,32.93,0,65.86.23,98.79,0,4.64-.72,6.85-5.91,6.28-6.72-.74-15.69,2.8-19.65-1.41-3.34-3.57-.68-12.47-1.28-19-.62-6.67.74-10.31,8.57-9.13,6.68,1,3.88-4.53,4.29-7.55.43-3.22.64-6.67-4.52-5.62-6.95,1.39-9.37-1.55-8.31-8.37a41.65,41.65,0,0,0,0-9.47c-.56-7-.73-12.59,9.55-11.42,5.86.66,2.63-5.43,3.23-8.48.49-2.58.54-5.83-3.67-4.93-9,1.92-9.94-3-9.13-10a33.7,33.7,0,0,0,0-7.1c-.72-7.38-.8-13.91,9.92-11.52,3.2.71,3.58-1.92,4.3-4.32C42,36.76,53.1,28.33,68.1,28.22c26.6-.19,53.22,0,79.82,0v0c27.14,0,54.28.13,81.4-.12,5.13-.05,6.55,1.36,6.52,6.48s-.85,7.19-6.76,7.17c-52.12-.25-104.23-.14-156.36-.12C55.53,41.54,49.94,47.22,50,64.24ZM235.1,153.73c-2,4-7.12,1.17-10.84,1.47-3,.23-3.78,2-5.07,4.1-8.21,13.29-22.59,13.32-30.63-.19-1.87-3.14-3.72-3.74-6.84-3.72-16.35.06-32.69.09-49-.08-3.52,0-5.48.69-7.28,4.21C119,172,103.32,172.67,96.3,160.67c-2.54-4.38-5.28-6.14-10-5.28-5.11.93-6.19-1.47-6-6.1.3-8.38.19-16.79,0-25.17-.1-3.83,1-5.54,5.12-5.83,7-.47,14.61-1.07,17.62-9.05,5.69-15.16,18-15.78,31.19-14.87,3.15.22,6.28.33,9.43.49v-.15a36.46,36.46,0,0,0,5.53,0c17.37-2.79,31.32,1.41,39,18.77,1.33,3,4.49,3.27,7.28,4.13,11.28,3.45,22.44,7.32,33.82,10.41,4.9,1.33,7.07,3.45,6.31,8.53a39.11,39.11,0,0,0,0,5.52C235.55,146,236.74,150.56,235.1,153.73Z"/>
    </g>
  </g>
</svg>
