<svg xmlns="http://www.w3.org/2000/svg" viewBox="0 0 293.05 169.24">
  <g id="Capa_2" data-name="Capa 2">
    <g id="Capa_1-2" data-name="Capa 1">
      <path d="M146,169.09c-46.14,0-92.28-.15-138.42.15C1.2,169.24,0,167.39,0,161.4Q.36,84.77,0,8.12C0,1.37,1.81-.36,8.33.06a241.1,241.1,0,0,0,28.45,0c5.91-.33,7.47,1.26,7.44,7.33-.28,46.34,0,92.68-.25,139,0,6.62,1.1,8.85,8.42,8.81q94.92-.52,189.84-.06c6.43,0,7.73-1.89,7.7-8-.27-46.4-.05-92.81-.33-139.21,0-6.18,1.47-8.23,7.81-7.89,10,.53,20,.27,30,0,3.71-.08,5.65.33,5.64,4.88q-.23,79.48,0,159c0,6.18-3.52,5.1-7.08,5.11Z"/>
      <path d="M236.17,26.19c0-5-1.29-6.19-6.11-6.13-18.71.27-37.41.11-56.12.11-19,0-37.91.11-56.87-.07-4.28,0-5.91.85-5.87,5.6q.35,41.9,0,83.77c0,5.27,1.55,6.7,6.74,6.67q56.12-.28,112.23,0c5,0,6-1.46,6-6.2Q235.83,68.09,236.17,26.19Zm-85.74,8.46c0,20,.09,40,0,60,0,2.53,1.33,6.57-3.53,6.22-4.13-.3-2.68-3.94-2.68-6.22-.12-20-.06-40-.06-59.95A10.56,10.56,0,0,1,150.43,34.65ZM129.6,102.42c-4.4-.13-4.37-2.49-4.37-5.64,0-19.19.08-38.4,0-57.62,0-3.49.67-5.11,4.74-5.11,4.46,0,4.41,2.44,4.4,5.53V68.77h0V96.4c0,3.39.15,6.14-4.77,6Zm39.91-63.14c-.08,19.21,0,38.42,0,57.63,0,3,.49,5.7-4.18,5.54-4.12-.13-4.7-2.07-4.67-5.46.13-10,0-20,0-30h0c0-9.21.11-18.42,0-27.63-.06-3.4.43-5.24,4.59-5.38,4.5-.16,4.33,2.16,4.31,5.3ZM186.9,68.6V97c0,3,.33,5.54-4.34,5.37-4.22-.14-4.62-2.09-4.6-5.4V40.18c0-3.09-.28-6,4.76-6.14,5.64-.13,4.1,3.4,4.14,6.15.15,9.47,0,19,0,28.41Zm17.66,29.16c0,3.41-1.09,4.55-4.54,4.56s-3.81-1.74-3.81-4.43c.06-10.29,0-20.56,0-30.84V39.35c0-2.42-.87-5.28,3.62-5.2,3.95.08,4.72,1.44,4.69,5.08q-.17,29.27,0,58.53Zm13,4.61c-4.14-.06-3.91-2.23-3.89-5V39c0-2.91.06-4.87,4-5,4.45-.15,4.51,2.23,4.48,5.41-.08,9.46,0,18.94,0,28.4h0V97c0,3.22-.21,5.43-4.63,5.37Z"/>
      <path d="M138.11,140.58c-4.52.3-7.48-.23-9.51-2.33s-4.42-4.4-3.29-7.41c1-2.77,4.07-1.1,6.19-1.3a35.11,35.11,0,0,1,8.57,0c2.43.37,6.44-2,7,2,.48,3.37-2.13,6.29-5.31,7.91A14.18,14.18,0,0,1,138.11,140.58Z"/>
    </g>
  </g>
</svg>
