<svg xmlns="http://www.w3.org/2000/svg" viewBox="0 0 302.22 213.13">
  <g id="Capa_2" data-name="Capa 2">
    <g id="Capa_1-2" data-name="Capa 1">
      <path d="M50.3,92.75c.32-5.13.26-7.86,7-7.83q94,.47,188,0c6.65,0,6.16,3,6.16,7.47,0,4.28.39,7.12-5.89,7-31.6-.42-63.22-.19-94.84-.19h0c-31.06,0-62.13-.09-93.18.1C52.38,99.46,49.94,98.81,50.3,92.75Z"/>
      <path d="M151.58,140.59h0c31,0,62.1.19,93.13-.16,5.95-.06,6.92,2,6.71,7.2-.19,4.54.24,7.6-6.29,7.57q-94-.42-188,0c-5.77,0-6.82-1.83-6.86-7.14,0-5.63,1-7.7,7.28-7.64C88.89,140.78,120.23,140.59,151.58,140.59Z"/>
      <path d="M251.44,175.7c-.22,4.66,0,7.47-6.39,7.44q-94.24-.42-188.5,0c-6.74,0-6-3.31-6.21-7.71-.29-5,.93-6.8,6.37-6.76,31.62.27,63.26.13,94.87.13h0c31,0,62.09.18,93.12-.16C250.44,168.65,251.71,170.36,251.44,175.7Z"/>
      <path d="M251.55,120c-.05,6.25-1.77,7.78-7.88,7.72-31-.32-62-.14-92.92-.14h0c-31.1,0-62.2-.12-93.28.11-5.31,0-7.53-1-7.17-6.9.32-5,0-8,6.87-7.85,35.78.88,71.58.35,107.36.58,26.46.18,53,.32,79.44-.58C249.64,112.72,251.58,113.81,251.55,120Z"/>
      <path d="M302,51.48a34.16,34.16,0,0,1,0-5.54c-.1-9.43-4.39-14-13.76-14.24-5.53-.16-11.09-.22-16.6.09A18.2,18.2,0,0,1,258,27.22c-9.85-8.28-20.2-16-30.2-24.09A12.35,12.35,0,0,0,219.11.27C176.67.38,134.22.59,91.8,0c-10.13-.15-18,2.45-25.45,9.17C50.94,23.07,35.48,37,11.69,32,5.39,30.62,1.17,36,.31,42.55-.1,45.67.58,48.91.14,52c-.7,5,1.22,7,6,6,7.24-1.39,8.45,1.9,8.41,8.55-.3,46.14,0,92.27-.35,138.4,0,6.81,2.06,8.17,8.4,8.12,43-.27,86-.14,128.91-.14,42.43,0,84.84-.19,127.27.19,7.4.06,9.08-2,9-9.16-.34-46.13,0-92.26-.32-138.39,0-6.11,1.43-8.76,7.63-7.58C300.56,59.07,303,57.18,302,51.48ZM264.81,188.59c0,5.88-1.11,8.07-7.64,8q-107-.33-214.07,0c-4.38,0-5.91-1.16-5.88-5.75.15-37.93.25-75.86-.07-113.8,0-6.17,3.33-5.19,6.9-5.19H258c4.36,0,7.09-.07,7,6.06C264.59,114.83,264.61,151.7,264.81,188.59Z"/>
      <path d="M50.3,92.75c.32-5.13.26-7.86,7-7.83q94,.47,188,0c6.65,0,6.16,3,6.16,7.47,0,4.28.39,7.12-5.89,7-31.6-.42-63.22-.19-94.84-.19h0c-31.06,0-62.13-.09-93.18.1C52.38,99.46,49.94,98.81,50.3,92.75Z"/>
      <path d="M50.26,148.07c0-5.63,1-7.7,7.28-7.64,31.35.35,62.69.16,94,.16h0c31,0,62.1.19,93.13-.16,6-.06,6.92,2,6.71,7.2-.19,4.54.24,7.6-6.29,7.57q-94-.42-188,0C51.35,155.24,50.3,153.38,50.26,148.07Z"/>
      <path d="M251.44,175.7c-.22,4.66,0,7.47-6.39,7.44q-94.24-.42-188.5,0c-6.74,0-6-3.31-6.21-7.71-.29-5,.93-6.8,6.37-6.76,31.62.27,63.26.13,94.87.13h0c31,0,62.09.18,93.12-.16C250.44,168.65,251.71,170.36,251.44,175.7Z"/>
      <path d="M50.3,120.78c.32-5,0-8,6.87-7.85,35.78.88,71.58.35,107.36.58,26.46.18,53,.32,79.44-.58,5.67-.21,7.61.88,7.58,7.09s-1.77,7.78-7.88,7.72c-31-.32-62-.14-92.92-.14h0c-31.1,0-62.2-.12-93.28.11C52.16,127.71,49.94,126.71,50.3,120.78Z"/>
      <path d="M251.42,147.66c-.19,4.54.24,7.6-6.29,7.57q-94-.42-188,0c-5.77,0-6.82-1.83-6.86-7.14,0-5.63,1-7.7,7.28-7.64,31.35.35,62.69.16,94,.16h0c31,0,62.1.19,93.13-.16C250.66,140.4,251.63,142.5,251.42,147.66Z"/>
      <path d="M245.49,99.48c-31.6-.42-63.22-.19-94.84-.19h0c-31.06,0-62.13-.09-93.18.1-5.09,0-7.53-.62-7.17-6.68.32-5.13.26-7.86,7-7.83q94,.47,188,0c6.65,0,6.16,3,6.16,7.47S251.77,99.55,245.49,99.48Z"/>
      <path d="M251.44,175.7c-.22,4.66,0,7.47-6.39,7.44q-94.24-.42-188.5,0c-6.74,0-6-3.31-6.21-7.71-.29-5,.93-6.8,6.37-6.76,31.62.27,63.26.13,94.87.13h0c31,0,62.09.18,93.12-.16C250.44,168.65,251.71,170.36,251.44,175.7Z"/>
      <path d="M251.55,120c-.05,6.25-1.77,7.78-7.88,7.72-31-.32-62-.14-92.92-.14h0c-31.1,0-62.2-.12-93.28.11-5.31,0-7.53-1-7.17-6.9.32-5,0-8,6.87-7.85,35.78.88,71.58.35,107.36.58,26.46.18,53,.32,79.44-.58C249.64,112.72,251.58,113.81,251.55,120Z"/>
    </g>
  </g>
</svg>
