<svg xmlns="http://www.w3.org/2000/svg" viewBox="0 0 256.41 225.46">
  <g id="Capa_2" data-name="Capa 2">
    <g id="Capa_1-2" data-name="Capa 1">
      <path d="M34,23.14c-.14-5.78,0-11.58-.51-17.32C33,1.18,34.68,0,39.12,0q102,.24,204,.24c13.11,0,13.11.07,13.12,13.3,0,67.74-.12,135.48.17,203.23,0,7-1.91,8.72-8.76,8.69q-103.47-.39-206.93,0c-6,0-7.73-1.45-7.46-7.41.48-11,.25-22.14.08-33.21,0-3.81.71-6.07,5.16-5.47a44.43,44.43,0,0,0,6.32.06c11,0,11,0,12.14,11.15.82,7.93,6.12,12.9,13.39,12.55a12.94,12.94,0,0,0,12.3-13.55v0c-.38-6.54.86-11.78,5-17.24,6.58-8.67,5.51-17.82-1.4-26.85-6.08-7.93-4.18-23.42,1.67-31.3C101.67,95.66,119.17,80.9,135,64.45c5.08-5.3,12.6-7.53,16.58-14.2,1.24-2.08,4.45-.91,6.75-.92,18.45-.09,36.9,0,55.35-.14,11.29-.09,17.24-4.63,17.39-12.83s-6.34-13-18-13c-18.45,0-36.9-.11-55.35.05-4.14,0-7-.81-10-4.24-10.23-11.58-27.23-11.32-38.21.57-2.74,3-5.18,3.7-8.75,3.65-9.22-.15-18.45,0-27.67-.08-7.19-.08-12.9,2.12-15.68,9.34-1.19,4,.13,8.33-1.28,14.48C47.79,38.73,39.56,32.28,34,23.14Z"/>
      <path d="M26.77,154.46c11.37,0,21.32-.13,31.27.07,3,.07,4.75-1.77,7.09-2.77,3.89-1.66,7.59-1.3,10.66,2.28s3.35,6.73,1.08,10.76c-2.36,4.2-6.4,5.93-9.93,4.06-10-5.33-20.59-2.52-30.89-3.07-8.14-.43-16.34-.33-24.5,0-5.23.22-8.78-2.11-10.69-6.4-1.83-4.12-.64-8.13,2.71-11.48,15.8-15.81,31.49-31.72,47.28-47.53,21-21,42.15-41.94,63.08-63,2.15-2.16,3.25-5.34,5-8,3.24-4.93,8.14-5.42,13.31-4.49,5,.89,7.94,4.44,9,8.94,1.16,4.82.3,10-4.46,12.51-11.47,6.1-18.56,16.87-27.85,25.28C101.34,78.51,94,85.76,87.15,93.37,68.3,114.28,46.68,132.43,26.77,154.46Z"/>
      <path d="M34,23.14,55.38,43.51c1.47-3.48-1.21-7.75,2-10.92q0,18-.09,36c0,1.73.81,3.71-1.25,4.93-2.93-3.5-1.63-7.38-1.15-10.19-6.11,6.28-10.78,15.33-21,18.4V69.06c2.11-2.35,4.35-4.59,6.38-7,8.11-9.62,7.41-14-3.36-21.49-1.94,1.14-1,4.13-3.22,5.08C32.23,38.13,33.6,30.64,34,23.14Z"/>
      <path d="M33.91,81.68C41,74.87,48.15,68.07,56,60.54V73.47C47.54,80.1,44,91.15,34.22,97.35,32.75,92.12,33.37,86.9,33.91,81.68Z"/>
      <path d="M33.69,45.65l1.3-10C40.84,41,48.92,44.45,47.8,52.72,46.8,60.21,41.26,65.9,33.89,69Q33.78,57.36,33.69,45.65Z"/>
    </g>
  </g>
</svg>
