<svg xmlns="http://www.w3.org/2000/svg" viewBox="0 0 230.68 188.27">
  <g id="Capa_2" data-name="Capa 2">
    <g id="Capa_1-2" data-name="Capa 1">
      <path d="M116.16.14C151.48.14,186.79.29,222.1,0c6.3,0,9.07,1.16,8.5,8.13a191.08,191.08,0,0,0-.09,23.69c.2,4.66-1.54,5.66-5.9,5.62-22.4-.21-44.8-.14-67.2,0a12.63,12.63,0,0,1-8.53-3c-22-17.51-45.19-17.31-67.4.45a10.46,10.46,0,0,1-7.1,2.6c-22.4-.14-44.8-.24-67.19,0-4.92,0-7-.92-6.7-6.4a213,213,0,0,0,0-24.5C.21,1.37,1.8,0,7,.08,43.43.24,79.84.14,116.16.14Z"/>
      <path d="M160.58,98.4c0-3.38-.61-6.89-3.63-8.17-4.83-2.06-4.56-5.63-4.43-9.62.13-3.69.11-7.39-.1-11.08-1.13-21.6-22.36-38.15-43.36-33.86-19.35,4-30.38,18-30.79,39.11-.11,6.21,1.91,13-5.9,17-2.55,1.32-2.14,5.65-2.12,8.87,0,14-.07,27.94,0,41.92,0,9.68,3.55,13,13.52,13H115.4c11.08,0,22.14.16,33.22,0,8.59-.16,12-3.6,12-12.09C160.73,128.45,160.54,113.41,160.58,98.4Zm-36.37,37.17H106.84c2.26-6.38,4.08-12.22.17-18.56-1.79-2.93.82-6.59,4-8.52a8.48,8.48,0,0,1,9.64.25c3.18,2.14,5.26,5.83,3.28,8.74C119.7,123.6,122.14,129.14,124.21,135.57Zm6.55-48.32c-5.24-.33-10.52-.07-15.79-.06-1,0-2.27.35-3.14,0-5.22-2.5-15,5.87-16.11-5.09-1.85-19,4.61-29,17.14-30.18,11.27-1.09,20.91,5.76,22.28,16.32.62,4.66,0,9.46.37,14.17.27,3.66-.82,5.1-4.75,4.84Z"/>
      <path d="M114.53,188.14c-35.85,0-71.7-.1-107.55.13-5.07,0-6.78-1.18-6.51-6.38.43-8.42.29-16.87.09-25.3-.09-3.87.67-5.6,5.16-5.51q24,.45,48,0c3.19,0,4.06,1.64,5.13,3.68,5.49,10.46,14.21,14.6,25.88,14.42,21.08-.33,42.18-.25,63.26,0,10.52.12,18.34-4.15,23.34-13.17,2-3.64,4.19-5,8.44-4.92q22.53.48,45.07,0c4.64-.1,5.79,1.45,5.66,5.76-.27,8.42-.39,16.88,0,25.29.25,4.93-1.27,6.07-6.09,6-36.64-.22-73.28-.12-109.92-.12Z"/>
      <path d="M160.91,50.41h65.18c3.5,0,4.49,1.43,4.43,4.71-.16,9.48-.23,19-.06,28.45.06,3.27-1.27,4-4.18,4-16.85-.08-33.71.06-50.56-.09-6.42-.06-9.43-5.18-9.8-10.15C165.25,68.38,165.52,59.48,160.91,50.41Z"/>
      <path d="M69.91,50.44a65.06,65.06,0,0,0-4.86,25.74c0,6.84-5.06,11.26-12,11.28-15.82,0-31.64-.09-47.46.19C1.82,87.71.43,86.93.52,83q.36-13.83,0-27.68c-.09-3.82,1.24-5,5-4.94C26.63,50.52,47.71,50.44,69.91,50.44Z"/>
      <path d="M202,137.54c-7.63,0-15.26-.18-22.87.07-3.78.12-4.89-1.09-4.77-4.87.28-8.93.25-17.88,0-26.81-.1-3.71.94-5,4.82-4.94,15.51.2,31,.11,46.54,0,3,0,4.88.28,4.78,4.1-.24,9.46-.27,18.94,0,28.39.11,4-2,4.07-4.87,4-7.88-.09-15.77,0-23.66,0Z"/>
      <path d="M28.47,137.52c-2.64,0-5.28.14-7.9,0-6.47-.43-15.33,3-18.77-1.32C-1.45,132.13.69,123.63.67,117.09c-.06-16,0-16,15.74-16,11.6,0,23.21.17,34.81-.07,4.09-.09,5.55,1.08,5.41,5.29-.29,8.69-.31,17.41,0,26.1.15,4.28-1.36,5.4-5.43,5.23C43.62,137.32,36,137.53,28.47,137.52Z"/>
    </g>
  </g>
</svg>
