<svg xmlns="http://www.w3.org/2000/svg" viewBox="0 0 244.24 201.32">
  <g id="Capa_2" data-name="Capa 2">
    <g id="Capa_1-2" data-name="Capa 1">
      <path d="M145.74.23c15-.06,29.94,0,44.9-.22a12.54,12.54,0,0,1,8.58,3c13.46,10.82,27,21.59,40.7,32.05,5.15,3.93,4.33,9,4.2,14.17-.11,4.36-3.79,3.9-6.64,4.43-4.4-1.25-8.9-.53-13.34-.54-37.68-.07-75.36-.14-113,.07-5.69,0-9.91-.29-9.67-7.4a5.29,5.29,0,0,0-1.35-3.66c-6.31-6.51-13.62-12-19.28-19.23-1.88-2.42-6-2-9-.81C64.57,25,60,30.8,55.1,37.3c4.82,1.15,6.41-1.75,8.52-3.43s3.85-3.62,6.2-4.86,5-2.14,7.34,0,2.58,5.22,1.09,8c-2.56,4.71-7.77,8.06-6.89,14.54.18,1.36-1.85,1.58-3.17,1.53-5.21-.23-10.49.8-15.57-1.51-3.7-1.68-7.53-1.44-11.56-.4-13.41,3.49-27,2.17-40.58,1.06-1.59-8.72.69-15,8.61-20.52C21.78,23,33.53,12.8,45.47,3A10.94,10.94,0,0,1,53.19.08C64.49.24,75.79.24,87.1.3c-6.42,9.28.33,14.37,6.19,19.88,4.59,4.31,8.83,9,13.42,13.28,2.13,2,4.47,6.27,7.58,3.55,3.42-3-1.06-5.32-2.81-7.52-4.58-5.76-4.09-10.46,1.58-13.7a8.19,8.19,0,0,1,6.82-.58,33,33,0,0,1,5.64,2.73c2.64,1.34,6.12,4.52,8,.29,1.74-3.92-3.17-3.91-5.4-5C118.69,8.54,117.94,7.48,120.5.35h11a12,12,0,0,1,5.87,3.43c1.76,2.07,3.46,5.25,6.8,4C147.93,6.36,144.41,2.61,145.74.23Z"/>
      <path d="M226,68.11c.19,11.8.52,23.6.56,35.4.08,30.23-.07,60.47.12,90.71,0,5-.18,7.87-6.6,6.75-4.75-.83-9.84-.2-14.73.27s-6.23-.94-6.19-6c.27-33.32.18-66.65.21-100-2.5-2.26-5.53-1-8.27-1-37.38-.1-74.76,0-112.13-.14-2.7,0-6.32,1.56-7.91-1.66-1.27-2.58,1.15-4.94,2.62-7.06C76,82,76.86,78.23,77.21,74.24s1.1-5.52,6.58-5.63c7.08-.13,14.4-1.12,21.57-1.17,39.22-.25,78.44-.13,117.66-.12A5,5,0,0,1,226,68.11Z"/>
      <path d="M44.25,200.55c-7.55.21-15.12.25-22.66.71-3.85.23-4.16-1.68-4.13-4.7.17-19.61.23-39.22.33-58.83,1.34-3.89,4.41-6.45,7.13-9.3,5.42-5.68,5.45-8.26-.41-13.77A36.9,36.9,0,0,1,17.75,106q0-11-.1-22.06c3.33-2,5.54.38,7.59,2.24,5.66,5.12,11,10.63,16.25,16.12a12.7,12.7,0,0,1,3.7,9.25q-.06,43,0,86.07A4,4,0,0,1,44.25,200.55Z"/>
      <path d="M187.87,146.45l-30.46,17.69c-.58-.74-1.2-1.18-1.16-1.53,1.1-8.2-2.91-9.64-10.33-9.37-16.57.6-33.19.37-49.78.12-5.18-.08-8.89.2-7.62,6.85.65,3.41-.74,4.51-3.84,2.69-9.22-5.39-18.4-10.82-28-16.48C65.83,141.07,74.45,136.09,83,131c3.44-2.06,6.24-2.83,5.52,2.66s1.87,5.81,6.26,5.76c16.86-.22,33.72-.09,50.58-.09,10.37,0,10.37,0,11-11.07Z"/>
      <path d="M226,68.11H117.86c-8.29,0-16.59.46-24.88.72-1.23,0-3.15-.9-3.58.53-3.31,11-6.23,2.07-10.18-1.22,1.65,9.81-.36,17.53-7.5,23.23,2.6,3.27,5.73,1.93,8.38,1.94,36.83.1,73.67,0,110.51.13,2.95,0,6.41-1.41,8.77,1.82-19.49-.14-39-.39-58.48-.41Q93.47,94.85,46,95c-1.78,1.49-3.62.9-4.94-.4-8.14-8-17.44-14.93-23.39-25-.41-3.47,2.19-3,4.14-3q100.44,0,200.9.1C224,66.79,225.41,66.46,226,68.11Z"/>
      <path d="M.41,52.18c10,.08,20.61,2.27,29.87-.31,11.14-3.11,21.08-4.58,31.73.36,2.15,1,5.16.15,8.94.15-4.41-5-2.39-8.25,1.24-11.24,1.21-1,2.2-2.26,3.33-3.36,2.4-2.32,3.22-5.07,1-7.68-2.48-2.86-5-.41-6.86,1.06a82.71,82.71,0,0,0-9.89,9c-2.46,2.65-4.06,2.23-6.41-.08s-1.68-3.87.34-5.82c4.17-4,7.93-8.51,12.35-12.22,7.44-6.23,17.83-4,21.6,4.86a12.16,12.16,0,0,0,6.87,6.84c5.74,2.56,9.92,7,9.64,13.23-.26,5.8,2.46,5.5,6.42,5.49q58.89-.15,117.76,0c3.07,0,6.35-1,9.18,1.17l-134.1.25Q55.71,54,8,53.88C5.5,53.82,2.27,55.61.41,52.18Z"/>
      <path d="M120.41.28C118.5,9.06,126.22,9.35,131,12.33c2.51,1.58,8.7.25,5.35,6.68-2.7,5.16-6,4.64-10.08,1.67a42.56,42.56,0,0,0-7.58-3.93c-4.21-1.86-6.33,1.37-8.44,3.95-2.31,2.82,0,4.79,1.83,6.7,1.27,1.32,2.64,2.56,3.87,3.92,1.91,2.12,4.34,3.9,1,7.15-2.91,2.84-5,3.07-7.86.14Q96.41,25.67,83.41,13C76.64,6.37,85.83,4.49,87,.25L99.79.31c.7,2.4-1.2,3.81-2.15,5.58-1.22,2.27-.42,4,1.39,5.47,2,1.61,3.78.69,5.61-.66,3.55-2.62,3.82-6.57,4.55-10.36Z"/>
      <path d="M17.7,69.64Q28.35,80,39,90.42c2,2,3.79,4.4,7,4.61-1.91,5.15-.38,10.37-.38,15.57q0,42.87-.06,85.76c0,1.52.36,3.2-1.34,4.19,0-28.35-.19-56.7,0-85.06,0-5.09-1-9.1-5.13-12.38-7.5-6-12.36-14.9-21.43-19.13Z"/>
      <path d="M17.75,106c3.62,3.25,7.6,6.19,10.77,9.83,3.69,4.24,4.29,8.72-1,12.79-3.5,2.72-6.53,6-9.77,9.07Q17.78,121.89,17.75,106Z"/>
      <path d="M109.22.36c4.72,7.33-1.93,10.32-5.77,13.81-4,3.65-6-1.41-7.8-3.48C90.76,5.07,98.92,4,99.82.33Z"/>
      <path d="M145.74.23c1.77,2.9,5.19,5.45.8,9.15s-6.42,0-8.88-2.38c-2.19-2.13-4.19-4.46-6.27-6.7Z"/>
      <path d="M56.92,76.73c1.63.32,1.63,1.68,1.54,3S57.6,82.19,56,82,54,80.6,54.26,79.22A2.79,2.79,0,0,1,56.92,76.73Z"/>
      <path d="M73.51,52.36c4.34-4.1,6.95-6.88,9.88-9.26,2.51-2,5.27-1.66,7.85.32A5,5,0,0,1,93.14,49c-.79,3.31-3.53,3.37-6.18,3.4Z"/>
    </g>
  </g>
</svg>
