<svg xmlns="http://www.w3.org/2000/svg" viewBox="0 0 1701.73 1620.81">
  <g id="Capa_2" data-name="Capa 2">
    <g id="Capa_1-2" data-name="Capa 1">
      <path d="M1686.4,19.41c0-6.65-1.12-8.77-8.41-8.74q-122.61.45-245.2,0c-6.8,0-8.92,1.52-8.89,8.67q.48,87.78.06,175.58c0,5.86,1.35,7.55,7.33,7.5,41.21-.25,82.42-.12,123.64-.12,41.4,0,82.78-.13,124.18.17,6.08.05,7.29-1.69,7.26-7.47Q1686,107.19,1686.4,19.41Zm-212.53,55.5c.08,32.93,0,65.86.23,98.79,0,4.64-.72,6.85-5.91,6.28-6.72-.74-15.69,2.8-19.65-1.41-3.34-3.57-.68-12.47-1.28-18.95-.62-6.67.74-10.31,8.57-9.13,6.68,1,3.88-4.53,4.29-7.55.43-3.22.64-6.67-4.52-5.62-6.95,1.39-9.37-1.55-8.31-8.37a41.64,41.64,0,0,0,0-9.47c-.56-7-.73-12.59,9.55-11.42,5.86.66,2.63-5.43,3.23-8.48.49-2.58.54-5.83-3.67-4.93-9,1.92-9.94-3.05-9.13-10a33.7,33.7,0,0,0,0-7.1c-.72-7.38-.8-13.91,9.92-11.52,3.2.71,3.58-1.92,4.3-4.32C1465.93,47.43,1477,39,1492,38.89c26.6-.19,53.22,0,79.82,0v-.05c27.14,0,54.28.13,81.4-.12,5.13-.05,6.55,1.36,6.52,6.48s-.85,7.19-6.76,7.17c-52.12-.25-104.23-.14-156.36-.12C1479.43,52.21,1473.84,57.89,1473.87,74.91ZM1659,164.4c-2,4-7.12,1.17-10.84,1.47-3,.23-3.78,2-5.07,4.1-8.21,13.29-22.59,13.32-30.63-.19-1.87-3.14-3.72-3.74-6.84-3.72-16.35.06-32.69.09-49-.08-3.52,0-5.48.69-7.28,4.21-6.43,12.45-22.12,13.15-29.14,1.15-2.54-4.38-5.28-6.14-10-5.28-5.11.93-6.19-1.47-6-6.1.3-8.38.19-16.79,0-25.17-.1-3.83,1-5.54,5.12-5.83,7-.47,14.61-1.07,17.62-9.05,5.69-15.16,18-15.78,31.19-14.87,3.15.22,6.28.33,9.43.49a.76.76,0,0,1,0-.15,36.43,36.43,0,0,0,5.53,0c17.37-2.79,31.32,1.41,39,18.77,1.33,3,4.49,3.27,7.28,4.13,11.28,3.45,22.44,7.32,33.82,10.41,4.9,1.33,7.07,3.45,6.31,8.53a37.61,37.61,0,0,0,0,5.52C1659.45,156.66,1660.64,161.23,1659,164.4Z"/>
      <path d="M738.38,1020.31c-7.85.2-18.46,3.53-22.82-1.24-4.7-5.12-1-15.63-1.57-23.73-.35-4.82,1.71-5.73,6-5.54,6.84.3,13.7.08,20.56.09,2.37,0,4.85.41,4.82-3.32-.08-10.9,0-21.81,0-32.43-2.88-.85-3.75.91-5.06,1.6-13.26,7.15-27.24,8-39.5-.38-18.14-12.34-34.88-13.05-53.21-.65-13.26,9-28.23,9.17-41.58.11-17.89-12.1-34.61-12.24-52.57-.15-13.91,9.36-28.77,8.43-43-.51-3.73-2.36-7.36-4.81-12.15-5.78,0,11.75.41,23.08-.16,34.37-.3,6.16,1.74,7.41,7.48,7.32,7.77-.15,18.72-3.68,22.55,1.42,4,5.27,1.19,15.6,1.37,23.72a5.21,5.21,0,0,0,0,.79c.42,3.48-1.21,4.54-4.56,4.47-7.11-.19-14.23.11-21.33-.08-4.06-.13-5.64,1.2-5.42,5.44.34,6.05.24,12.12,0,18.18-.14,3.6.76,5.24,4.75,5.07,8.94-.37,17.9-.33,26.84-.46,11-5.27,17-16.35,27-22.81,1.28-.83,3.16-1.64,3-3.32-.23-1.91-1.94-2.28-3.52-2.51l-.82-.13a4.68,4.68,0,0,1-3.36-1.68,3.89,3.89,0,0,1-.63-1.47c-.5-5.49-.06-11-.27-16.54-.19-5.22,1.92-7.77,7.36-7.75,14.73,0,29.47,0,44.2,0,4.42,0,7.07,1.68,7,6.46-.19,6,.73,12.09-.59,18.1a5.77,5.77,0,0,1-.71,1.08c-1.79,2.09-4.53,1.39-6.93,1.42-8.93.11-17.85,0-26.78.1a17.76,17.76,0,0,0-5.3.39,6.2,6.2,0,0,0-3.43,2.69c7.91,6.05,16,10.62,26.52,7.2,9.35-3,16.85.1,23.28,7.15,4.05,4.44,8.13,9,13.75,11.57q55.71.2,111.42.45c3.33,0,4.74-.78,4.56-4.39a136,136,0,0,1,0-17.37C745.92,1021.62,743.77,1020.17,738.38,1020.31Zm-42.76-5.18c.22,4.21-1.24,5.53-5.3,5.43-9-.2-17.92-.06-26.89-.06-8.42,0-16.87-.24-25.29.09-5.17.21-7.75-1-7.07-6.85.87-7.74-3.3-18.18,1.67-22.61,4.32-3.85,14.53-1.19,22.14-1.24,11.59-.08,23.19.14,34.77-.08,4.21-.08,6.27.73,6,5.57A166.84,166.84,0,0,0,695.62,1015.13Z"/>
      <path d="M657.71,1450.46c.12-9,.38-17.91.28-26.86-.06-4.93,1.8-8.79,6.71-8.86,5.16-.07,7.58,3.52,7.6,9,.05,14,.42,27.93.69,41.89,0,2.74-.9,5.94,4,5.79,4.59-.14,3.25-3.37,3.32-5.59.51-16.85,1-33.71,1.19-50.57.07-5.36,1.44-10.22,7.24-10.22,6,0,6.92,5.41,7,10.41.23,16.33.34,32.67.68,49,.06,2.67-1.87,6.65,3.62,7,6.2.36,4.21-4.34,4.32-7.08.55-13.42.92-26.86.91-40.29,0-5.23,1.47-9.51,6.85-9.44s7.72,4.11,7.65,9.84c-.17,13.71.15,27.42.31,41.12,0,2.81-.62,6,4.09,5.85,4.53-.12,3.22-3.28,3.29-5.59.25-8.16.31-16.33.48-24.5a43.32,43.32,0,0,1,.37-5.47c.58-3.83,2.59-6.36,6.74-6.27,4.33.1,5.91,2.94,6,6.81.26,10.54.54,21.07.63,31.61.13,15.49.28,31,.07,46.47-.13,8.82-4.23,16.79-7.08,24.88-4.85,13.73-4,27.08-1.29,41,3.43,17.44,4.95,15.29-12.19,15.43q-26.07.21-52.16.35c-5.74,0-10.84-.56-8-8.58,7.25-20.68,1-38.25-12-54.68-5.4-6.87-10.69-14.09-13-22.86-.64-.12-.87-.31-.71-.57s.35-.44.53-.44c-1.8-14.58-4.21-29.13-3-43.89.2-2.37-2.14-6.13,2.57-6.85,4.28-.67,7.47,1.36,8.68,5.21,2.27,7.24,4,14.67,5.83,22,.45,1.78.68,3.62,1,5.43.47,2.42,1.13,4.87,4.29,4.54,3.53-.38,2.72-3.32,2.71-5.53C657.91,1476.78,657.8,1463.62,657.71,1450.46Z"/>
      <path d="M584.33,1410c-11.06-11.14-24.67-15-39.84-14.72-1.49.45-3,1-4.47,1.33-25.27,5.3-42.28,31.37-36.91,56.56,5.41,25.4,30.32,42.22,55.59,37.24,21.41-4.23,33.45-18.2,39-38.6C598.7,1436.16,596,1421.74,584.33,1410ZM550,1458.38c-8.59-.07-15.11-6.41-15.19-14.77a15.13,15.13,0,0,1,15.69-15.25,14.77,14.77,0,0,1,14.63,15.33C564.89,1452.36,558.65,1458.42,550,1458.38Z"/>
      <path d="M713.26,1068.48c.06-4.29-.92-6-5.62-5.92-20.77.3-41.57.24-62.36.3-.38,5.75,4.78,7.71,7.74,11.09,6.17,7.06,6.63,16.92,0,23.35-7.2,7-13.56,14.7-20.35,22-3.36,3.61-9.31,5.41-9.58,11.6,25,.09,50,.38,75,.16,8.85-.08,15-7,15.07-16C713.28,1099.54,713,1084,713.26,1068.48Zm-20.73,48.36c-4.18-.4-8.42-.08-12.64-.08-3.42,0-6.93-.47-10.26.1-7.56,1.29-8.83-2.36-8.29-8.79.28-3.43,1.28-4.57,4.62-4.52,8.94.11,17.91.22,26.86-.1,5.91-.22,4.33,3.77,4.47,6.89C697.45,1113.72,698.2,1117.39,692.53,1116.84Z"/>
      <path d="M598,1483.5c0,25.12.67,50.15-.19,75.13-.82,23.44-20.6,42.27-43.94,43.64-24.74,1.46-46.36-14.42-51-37.67a70,70,0,0,1-1.42-13.31c-.14-22.64-.07-45.29-.07-69.55,7.34,7.24,15.6,11.07,14.5,23.3-1.45,16.21-.56,32.65-.29,49a35.81,35.81,0,0,0,25.39,33.5c13.4,4,28.31-1.67,37.4-14,5-6.75,5.9-14.49,5.93-22.47.06-13.17.8-26.41-.26-39.5C583.06,1499.27,585.67,1489.61,598,1483.5Z"/>
      <path d="M547.55,1072.18c-2-7.81.71-10,8.84-9.74,25.9.69,51.83.44,77.75.55,6.94,3.14,11.81,8.75,16.17,14.58,7.1,9.47-.68,24.46-13.42,26.58a4.63,4.63,0,0,1-1.56.13c-16.3-3.23-26.29,7.08-36.47,17-2.59,2.52-4.87,5.61-9.17,5a18.92,18.92,0,0,1-7.56-3.61c-1-3.14,1.13-4.76,3-6.61,10-9.64,11.81-22,5.15-33.48a27.56,27.56,0,0,0-33.33-12C554,1071.66,551.19,1074.69,547.55,1072.18Z"/>
      <path d="M547.55,1072.18c5.19-.77,9.41-4,14.76-5,12.51-2.18,21.68,2.88,28.52,12.11,7.52,10.16,7.06,21.37,1.28,32.58-2.38,4.62-8,5.89-10,10.72C562.05,1111.67,551.1,1094.46,547.55,1072.18Z"/>
      <path d="M589.69,1126.24c5.32-4.59,11.38-8.57,15.81-13.91,7.14-8.61,15.79-11.65,26.41-10.08,5.77.85,9.76-1.23,13.65-5.53,8.06-8.91,8.27-13.23-.1-21.75-3.85-3.92-7.55-8-11.32-12l11.14-.14c2.64,2.9,5.18,5.89,7.93,8.68,8.89,9,8.9,19.55,0,28.62q-15.09,15.35-30.13,30.76C611.61,1131.73,600.33,1131.25,589.69,1126.24Z"/>
      <path d="M629.42,1048.6c-3.67,0-7.34,0-11,0-2.23-1.74-5.32-2.11-7.11-4.65-5.31-7.62-12.47-8.66-20.79-5.75a19,19,0,0,1-16.62-1.76c-8.16-4.87-15.33-3.84-21.85,3.11a117.83,117.83,0,0,1-9.67,9.14l-12.58-.09c9.27-8.86,17.46-18.9,28.3-26.29-2.68-1.79-7,1.38-9.26-2.37a8.29,8.29,0,0,1,3.19-1.79,19.91,19.91,0,0,1,5.69-.58q22.74-.15,45.48,0a20.86,20.86,0,0,1,5.14.49,8.51,8.51,0,0,1,3.7,2c-1.82,2.92-4.73,1.67-7.15,1.68-12.25.13-24.51.07-36.92.49a46.72,46.72,0,0,1,10.67,5.94c5,3.46,10.35.2,15-1,8.77-2.25,15.38,0,21.29,6.06C619.78,1038.3,624.58,1043.48,629.42,1048.6Z"/>
      <path d="M542.35,1048.71c11.83-17.57,20.25-22.71,33.81-13.33,4.15,2.87,8.87,2.77,13.58.89,9.86-4,17.91-1.92,23.91,7.22,1.26,1.92,3.15,3.43,4.74,5.13Z"/>
      <path d="M1088.32,1405c35.32,0,70.63.15,105.94-.14,6.3,0,9.07,1.16,8.5,8.13a189.12,189.12,0,0,0-.09,23.69c.2,4.66-1.54,5.66-5.9,5.62-22.4-.21-44.8-.14-67.2,0a12.61,12.61,0,0,1-8.53-3c-22-17.51-45.19-17.31-67.4.45a10.44,10.44,0,0,1-7.1,2.6c-22.4-.14-44.8-.24-67.19,0-4.92,0-7-.92-6.7-6.4a213,213,0,0,0,0-24.5c-.28-5.22,1.31-6.55,6.55-6.51C1015.59,1405.1,1052,1405,1088.32,1405Z"/>
      <path d="M1132.74,1503.26c0-3.38-.61-6.89-3.63-8.17-4.83-2.06-4.56-5.63-4.43-9.62.13-3.69.11-7.39-.1-11.08-1.13-21.6-22.36-38.15-43.36-33.86-19.35,4-30.38,18-30.79,39.11-.11,6.21,1.91,13-5.9,17-2.55,1.32-2.14,5.65-2.12,8.87,0,14-.07,27.94,0,41.92,0,9.68,3.55,13,13.52,13,10.54,0,21.09,0,31.63,0,11.08,0,22.14.16,33.22,0,8.59-.16,12-3.6,12-12.09C1132.89,1533.31,1132.7,1518.27,1132.74,1503.26Zm-36.37,37.17H1079c2.26-6.38,4.08-12.22.17-18.56-1.79-2.93.82-6.59,4-8.52a8.48,8.48,0,0,1,9.64.25c3.18,2.14,5.26,5.83,3.28,8.74C1091.86,1528.46,1094.3,1534,1096.37,1540.43Zm6.55-48.32c-5.24-.33-10.52-.07-15.79-.06-1.05,0-2.27.35-3.14,0-5.22-2.5-15,5.87-16.11-5.09-1.85-19,4.61-29,17.14-30.18,11.27-1.09,20.91,5.76,22.28,16.32.62,4.66,0,9.46.37,14.17C1107.94,1490.93,1106.85,1492.37,1102.92,1492.11Z"/>
      <path d="M1086.69,1593c-35.85,0-71.7-.1-107.55.13-5.07,0-6.78-1.18-6.51-6.38.43-8.42.29-16.87.09-25.3-.09-3.87.67-5.6,5.16-5.51q24,.45,48,0c3.19,0,4.06,1.64,5.13,3.68,5.49,10.46,14.21,14.6,25.88,14.42,21.08-.33,42.18-.25,63.26,0,10.52.12,18.34-4.15,23.34-13.17,2-3.64,4.19-5,8.44-4.92q22.53.48,45.07,0c4.64-.1,5.79,1.45,5.66,5.76-.27,8.42-.39,16.88,0,25.29.25,4.93-1.27,6.07-6.09,6-36.64-.22-73.28-.12-109.92-.12Z"/>
      <path d="M1133.07,1455.27c22.59,0,43.89,0,65.18,0,3.5,0,4.49,1.43,4.43,4.71-.16,9.48-.23,19-.06,28.45.06,3.27-1.27,4-4.18,4-16.85-.08-33.71.06-50.56-.09-6.42-.06-9.43-5.18-9.8-10.15C1137.41,1473.24,1137.68,1464.34,1133.07,1455.27Z"/>
      <path d="M1042.07,1455.3a64.94,64.94,0,0,0-4.86,25.74c0,6.84-5.06,11.26-12,11.28-15.82,0-31.64-.09-47.46.19-3.77.06-5.16-.72-5.07-4.66q.35-13.83,0-27.68c-.09-3.82,1.24-5,5-4.94C998.79,1455.38,1019.87,1455.3,1042.07,1455.3Z"/>
      <path d="M1174.16,1542.4c-7.63,0-15.26-.18-22.87.07-3.78.12-4.89-1.09-4.77-4.87.28-8.93.25-17.88,0-26.81-.1-3.71.94-5,4.82-4.94,15.51.2,31,.11,46.54,0,3,0,4.88.28,4.78,4.1-.24,9.46-.27,18.94,0,28.39.11,4-2,4.07-4.87,4-7.88-.09-15.77,0-23.66,0Z"/>
      <path d="M1000.63,1542.38c-2.64,0-5.28.14-7.9,0-6.47-.43-15.33,3-18.77-1.32-3.25-4.07-1.11-12.57-1.13-19.11-.06-16,0-16,15.74-16,11.6,0,23.21.17,34.81-.07,4.09-.09,5.55,1.08,5.41,5.29-.29,8.69-.31,17.41,0,26.1.15,4.28-1.36,5.4-5.43,5.23C1015.78,1542.18,1008.2,1542.39,1000.63,1542.38Z"/>
      <path d="M1652,1499c0,38-.12,75.93.13,113.9,0,6-1.13,8.47-7.75,7.85-8.79-.82-16.64,1.24-23.56-9.17-6-9-11.92-16.41-10.33-27.72a44.9,44.9,0,0,0,0-11c-1.22-11.15,1.35-20.41,11.1-27.25,4.86-3.41,5.59-9.21.76-12.64-11.42-8.12-13.21-19.12-11.83-31.69a29,29,0,0,0,0-7.9c-1.93-11.18,2.08-19.61,10.69-26.78,5.65-4.7,5.47-9.71-.09-14.29-8-6.63-12.58-14.24-10.68-25.1a42,42,0,0,0,0-12.62c-1.51-11.27,1-20.66,11-27.19.87-.56,1.39-1.64,2.26-2.19,2.77-1.74-1.09-7.22,3.93-7.36a192.31,192.31,0,0,1,22.91.3c2.93.27,1.41,4.07,1.42,6.21q.13,57.35.06,114.69Z"/>
      <path d="M1546.72,1408.76c8.79,13,16.88,25.15,21.79,39,3.4,9.6-.08,19.3-8.22,25-9.21,6.47-19.09,6.07-28.28-1.13-7-5.53-9.79-15.79-6.45-24.8C1530.51,1433.51,1538.7,1421.94,1546.72,1408.76Z"/>
      <path d="M1546.77,1521.27a159.53,159.53,0,0,1,20.86,35.56c5.3,12.76-.21,26.05-12.24,30.74s-25.15-1.35-30.2-14a17.87,17.87,0,0,1-.29-13.12C1530.05,1546.36,1538,1533.88,1546.77,1521.27Z"/>
      <path d="M1480.79,1533.08c-15.42-.18-25.64-13.72-21.43-28.63,3.77-13.34,12-24.35,19.11-35.94,2.08-3.38,3.4-2.11,5,.3,7.09,10.72,14.43,21.36,18.58,33.61C1507.45,1518.37,1496.89,1533.26,1480.79,1533.08Z"/>
      <path d="M677.78,133.49q-19.92-20.25-40.19-40.2c-8.17-8.07-18.17-12.23-29.6-13.05-4.9-.35-9.16.28-12.4,4.87-2.36,3.33-5.19,5.07-10.46,3.17-9.75-3.5-18.65,5.49-15,15,1.9,4.86.62,7.57-2.59,9.82-4.83,3.38-5.51,7.91-5,13.59a38.14,38.14,0,0,0,10.78,26.74c13.77,14.5,28.11,28.46,42.47,42.37,8.58,8.32,18.69,8.07,27.21-.29,11.63-11.41,23.2-22.87,34.61-34.5C685.58,152.88,685.66,141.48,677.78,133.49Zm-76.77,11c-.39-8.6-.66-15.8-1.07-23-.22-3.81,2.37-3.32,4.71-3.32,6.52,0,13,0,21.45,0C618.36,128.49,609.58,135.47,601,144.54Zm36.85,16.23c-6.75-.05-13.5,0-22.52,0l27.26-23.38c0,5.41-.06,12.66,0,19.93C642.67,160.88,640.37,160.79,637.86,160.77Z"/>
      <path d="M703.13,83.09c-3.68-3.68-7.33-7.39-11.06-11-1.74-1.69-3.61-3.18-5.55-.11-1.48,2.35-6.2,3.83-2.62,7.6,8.13,8.56,16.34,17.07,24.86,25.24,3.63,3.48,5.15-1.51,7.57-2.88,3.17-1.79,2-3.59.18-5.35-7-6.62,1.72-8,4-11.17,3.67-5,5.24.91,6.86,2.42,4,3.74,6.56,9.08,4.33,14.23-2.75,6.36,1.09,9.19,4.58,12.6,12,11.67,19.48,25.21,18.36,42.54-1.36,21.1-11.76,36.38-30.82,44.81-19.47,8.62-37.94,5.15-54.74-7.85-2.53-2-3.05-3.88-.17-5.24,3.47-1.65,3.76-10.36,10.55-4.79,9.1,7.47,19.49,9.81,31,7.46,14.75-3,24.32-12,28.63-26.11,4.15-13.59.94-25.94-8.49-36.6-1.74-2-3.61-3.83-5.41-5.76-2.89-3.1-5.52-5.27-10.63-3.57-5.81,1.95-11.23-.42-15.67-5-8.08-8.28-16.45-16.29-24.57-24.55-8.32-8.47-8-17.5.71-26.26,9.15-9.21,18.16-9.85,26.79-1.89.77.71,1.54,1.43,2.27,2.18C713.46,73.67,713.46,73.68,703.13,83.09Z"/>
      <path d="M547.06,26.12C523.64,37.53,508.87,56,503,81.28c-1.27,5.44-3.82,8.18-9.21,6.83s-5.62-5.41-4.48-10c7.1-28.58,22.6-50.49,49.94-63C542.71,18.13,548.92,19.26,547.06,26.12Z"/>
      <path d="M515.29,83.34C517.76,69.5,525.44,57,537.16,47c7.86-6.72,17.14-11,27.16-13.62,4.91-1.29,8.59.23,9.68,5.21,1,4.47-1.22,7.28-6,8.53-20.43,5.36-33.68,18.12-38.88,38.8-1,4.07-3.28,7-7.54,6.52C517.67,92,514.92,89.47,515.29,83.34Z"/>
      <path d="M541.15,88c1-11.21,17.33-27.64,28.36-28.5,3.75-.29,7,.34,7.74,4.67.62,3.77.38,7.18-4.36,8.72-9,2.92-15.22,8.69-17.89,18.14-1.14,4-4.61,5.66-8.65,4.54A6.63,6.63,0,0,1,541.15,88Z"/>
      <path d="M547.06,26.12c-.1-5.47-7-6.08-7.85-11a16.61,16.61,0,0,1,8.06-4.1c9.79,7.49,9.79,7.49,19.41.1.85-.65,1.7-1.1,2.76-.52,2.95,5.38.36,8.29-4.58,9.94C559,22.48,553,24.26,547.06,26.12Z"/>
      <path d="M569.44,10.56a54.66,54.66,0,0,1-4.08,4.63c-7,6.41-13.75,4.81-18.09-4.21,4.69-1.24,9.39-2.41,14.05-3.74C565,6.19,567.78,6.91,569.44,10.56Z"/>
      <path d="M247.69,1043.92c0-16.31-.05-32.62,0-48.94,0-10.91,6-17,17-17.31,4.73-.14,9.47-.07,14.21,0,13.18.08,19.19,5.8,19.46,19.19.26,12.63,0,25.26,0,37.89,0,19.47-.17,38.94.1,58.4.07,4.68-.88,6.48-5.93,6.35-13.15-.33-26.31-.28-39.46,0-4.47.08-5.61-1.35-5.54-5.77.29-16.57.12-33.15.12-49.73Z"/>
      <path d="M144.54,1022.08c-23.16,0-46.33-.18-69.48.11-5.51.07-7.59-1.56-7.34-7.08a196.73,196.73,0,0,0,0-21.31c-.29-4.65,1.78-5,5.51-5,46.54.07,93.09,0,139.63.06,11.24,0,18.68,7.09,18.66,17,0,9.74-7.59,16.23-19.09,16.24Q178.48,1022.13,144.54,1022.08Z"/>
      <path d="M46.11,1037.27c-13.28-13-13.31-13.69.43-26.44,6.31-5.86,9.62-12.28,7-20.92-2.2-8.14-7.73-12-15.93-12.25-6-.16-12-.21-18,.08-9,.43-13.2,4.33-15.38,13.54C3,1009.12,4,1027,3.65,1044.8c-.08,4,1.58,4.66,4.78,3,3.53-1.9,6.17-4.86,9-7.65,4.13-4.16,8.8-4.41,13.62-1.47a14.93,14.93,0,0,1,7.33,9.86c1.36,6.81,7.12,7.82,12.19,9.69,2.7,1,3.38-.68,3.81-3.26C55.59,1047.05,51.14,1042.21,46.11,1037.27ZM29.32,997.35c5.6-.07,8.21,3.7,8.13,8.56s-3.18,8.15-9.82,8.12c-3.86-.37-7.14-2.74-7.25-8.2C20.28,999.83,23.88,997.41,29.32,997.35Z"/>
      <path d="M4.21,991.28v56.41c4.94-1.87,7.54-4.87,10.19-7.62,8.91-9.25,20.43-7,25.41,5.09,3.34,8.13,3.34,8.13,12.94,11.65,1.68-5.56.56-10.08-4-14-4-3.43-7.46-7.44-11.2-11.16-5.33-5.31-5.3-10.47.25-15.61,1.94-1.79,3.64-3.85,5.67-5.51C50,1005.19,55,999.14,53.56,989.91c3.45,9.43,1.08,19.19,1.3,28.75.58,24.65.18,49.33,0,74,0,2.1,1.38,4.79-1.49,6.32-3.72-6.4-1.49-13.39-1.83-20.09-.44-8.64-4.74-13.76-13-14.51a5.41,5.41,0,0,0-5.44,2.44c-1.26,2-.13,3.49,1.19,4.89a34,34,0,0,1,4.09,4.8c2.51,3.85,2.47,7.39-1.27,10.48s-6.39.77-8.93-1.68c-7-6.75-13.89-13.58-21.32-21.89,1.29,7.47,3.71,12,9.91,14.91,7.75,3.67,10.07,12.43,6.67,20.83L12.31,1099a6.66,6.66,0,0,1-.33-.72c-.94-2.78.58-7.66-3.5-7.73-3.58-.06-1.26,5-3,7.19-.32.4-.58.86-1,1.24-2.93-1.44-1.5-4.13-1.5-6.17q-.15-47.37,0-94.74C3,995.76,2.37,993.28,4.21,991.28Z"/>
      <path d="M23.44,1099.16c.54-9.81-.77-17.55-12.37-21.47C6,1076,4.78,1067.57,4.4,1061.14c3.41-.72,4.66,1.35,6.25,3q9.78,10.29,19.71,20.46c1.56,1.6,3,3.89,5.71,1.08,2.28-2.31,3.82-4.42,1.43-7.39-1.47-1.84-3.36-3.37-4.67-5.31s-6.64-2.37-2.92-6.34c2.72-2.91,5.15-7.18,10.48-4a34.5,34.5,0,0,0,7.93,3.46c4,1.17,5.22,3.61,5.12,7.61-.21,8.42,0,16.85,0,25.28Z"/>
      <path d="M4.51,1099a19.84,19.84,0,0,1,.08-4.63c.64-2.58-2.08-7.32,2.9-7.22,4.41.08,6.53,3.76,6.14,8.27a14.52,14.52,0,0,1-1.32,3.6A14.16,14.16,0,0,1,4.51,1099Z"/>
      <path d="M645.33,464.87c15-.06,29.94,0,44.9-.22a12.56,12.56,0,0,1,8.58,3c13.46,10.82,27,21.59,40.7,32.05,5.15,3.93,4.33,9.05,4.2,14.17-.11,4.36-3.79,3.9-6.64,4.43-4.4-1.25-8.9-.53-13.34-.54-37.68-.07-75.36-.14-113,.07-5.69,0-9.91-.29-9.67-7.4a5.23,5.23,0,0,0-1.35-3.66c-6.31-6.51-13.62-12-19.28-19.23-1.88-2.42-6-2-9-.81-7.27,2.88-11.8,8.71-16.74,15.21,4.82,1.15,6.41-1.75,8.52-3.43s3.85-3.62,6.2-4.86,5-2.14,7.34,0,2.58,5.22,1.09,8c-2.56,4.71-7.77,8.06-6.89,14.54.18,1.36-1.85,1.58-3.17,1.53-5.21-.23-10.49.8-15.57-1.51-3.7-1.68-7.53-1.44-11.56-.4-13.41,3.49-27,2.17-40.58,1.06-1.59-8.72.69-15.05,8.61-20.52,12.69-8.76,24.44-18.91,36.38-28.72a11,11,0,0,1,7.72-2.91c11.3.16,22.6.16,33.91.22-6.42,9.28.33,14.37,6.19,19.88,4.59,4.31,8.83,9,13.42,13.28,2.13,2,4.47,6.27,7.58,3.55,3.42-3-1.06-5.32-2.81-7.52-4.58-5.76-4.09-10.46,1.58-13.7a8.24,8.24,0,0,1,6.82-.58,33.34,33.34,0,0,1,5.64,2.73c2.64,1.34,6.12,4.52,8,.29,1.74-3.92-3.17-3.91-5.4-5-9.43-4.69-10.18-5.75-7.62-12.88l11,0a12,12,0,0,1,5.87,3.43c1.76,2.07,3.46,5.25,6.8,4C647.52,471,644,467.25,645.33,464.87Z"/>
      <path d="M725.6,532.75c.19,11.8.52,23.6.56,35.4.08,30.23-.07,60.47.12,90.71,0,5-.18,7.87-6.6,6.75-4.75-.83-9.84-.2-14.73.27s-6.23-.94-6.19-6c.27-33.32.18-66.65.21-100-2.5-2.26-5.53-1-8.27-1-37.38-.1-74.76,0-112.13-.14-2.7,0-6.32,1.56-7.91-1.66-1.27-2.58,1.15-4.94,2.62-7.06,2.34-3.38,3.17-7.15,3.52-11.14s1.1-5.52,6.58-5.63c7.08-.13,14.4-1.12,21.57-1.17,39.22-.25,78.44-.13,117.66-.12A5,5,0,0,1,725.6,532.75Z"/>
      <path d="M543.84,665.19c-7.55.21-15.12.25-22.66.71-3.85.23-4.16-1.68-4.13-4.7.17-19.61.23-39.22.33-58.83,1.34-3.89,4.41-6.45,7.13-9.3,5.42-5.68,5.45-8.26-.41-13.77a36.93,36.93,0,0,1-6.76-8.62q0-11-.1-22.06c3.33-2,5.54.38,7.59,2.24,5.66,5.12,11,10.63,16.25,16.12a12.66,12.66,0,0,1,3.7,9.25q-.06,43,0,86.07A3.91,3.91,0,0,1,543.84,665.19Z"/>
      <path d="M687.46,611.09,657,628.78c-.58-.74-1.2-1.18-1.16-1.53,1.1-8.2-2.91-9.64-10.33-9.37-16.57.6-33.19.37-49.78.12-5.18-.08-8.89.2-7.62,6.85.65,3.41-.74,4.51-3.84,2.69-9.22-5.39-18.4-10.82-28-16.48,9.15-5.35,17.77-10.33,26.31-15.45,3.44-2.06,6.24-2.83,5.52,2.66s1.87,5.81,6.26,5.76c16.86-.22,33.72-.09,50.58-.09,10.37,0,10.37,0,11-11.07Z"/>
      <path d="M725.6,532.75q-54.08,0-108.15,0c-8.29,0-16.59.46-24.88.72-1.23,0-3.15-.9-3.58.53-3.31,11-6.23,2.07-10.18-1.22,1.65,9.81-.36,17.53-7.5,23.23,2.6,3.27,5.73,1.93,8.38,1.94,36.83.1,73.67,0,110.51.13,2.95,0,6.41-1.41,8.77,1.82-19.49-.14-39-.39-58.48-.41-31.62,0-63.25.09-94.87.14-1.78,1.49-3.62.9-4.94-.4-8.14-8-17.44-14.93-23.39-25-.41-3.47,2.19-2.95,4.14-2.95q100.44,0,200.9.1C723.56,531.43,725,531.1,725.6,532.75Z"/>
      <path d="M500,516.82c10,.08,20.61,2.27,29.87-.31,11.14-3.11,21.08-4.58,31.73.36,2.15,1,5.16.15,8.94.15-4.41-5-2.39-8.25,1.24-11.24,1.21-1,2.2-2.26,3.33-3.36,2.4-2.32,3.22-5.07,1-7.68-2.48-2.86-5-.41-6.86,1.06a83.82,83.82,0,0,0-9.89,9c-2.46,2.65-4.06,2.23-6.41-.08s-1.68-3.87.34-5.82c4.17-4,7.93-8.51,12.35-12.22,7.44-6.23,17.83-4,21.6,4.86a12.15,12.15,0,0,0,6.87,6.84c5.74,2.56,9.92,7,9.64,13.23-.26,5.8,2.46,5.5,6.42,5.49q58.89-.14,117.76,0c3.07,0,6.35-1,9.18,1.17q-67.05.13-134.1.25c-31.81.05-63.62.1-95.42,0C505.09,518.46,501.86,520.25,500,516.82Z"/>
      <path d="M620,464.92c-1.91,8.78,5.81,9.07,10.54,12.05,2.51,1.58,8.7.25,5.35,6.68-2.7,5.16-6,4.64-10.08,1.67a42.83,42.83,0,0,0-7.58-3.93c-4.21-1.86-6.33,1.37-8.44,3.95-2.31,2.82,0,4.79,1.83,6.7,1.27,1.32,2.64,2.56,3.87,3.92,1.91,2.12,4.34,3.9,1,7.15-2.91,2.84-5,3.07-7.86.14Q596,490.31,583,477.63c-6.77-6.62,2.42-8.5,3.6-12.74l12.78.06c.7,2.4-1.2,3.81-2.15,5.58-1.22,2.27-.42,4,1.39,5.47,2,1.61,3.78.69,5.61-.66,3.55-2.62,3.82-6.57,4.55-10.36Z"/>
      <path d="M517.29,534.28q10.66,10.4,21.33,20.78c2,2,3.79,4.4,7,4.61-1.91,5.15-.38,10.37-.38,15.57q0,42.87-.06,85.76c0,1.52.36,3.2-1.34,4.19-.05-28.35-.19-56.7,0-85.06,0-5.09-1-9.1-5.13-12.38-7.5-6-12.36-14.9-21.43-19.13Z"/>
      <path d="M517.34,570.68c3.62,3.25,7.6,6.19,10.77,9.83,3.69,4.24,4.29,8.72-1,12.79-3.5,2.72-6.53,6-9.77,9.07Q517.37,586.53,517.34,570.68Z"/>
      <path d="M608.81,465c4.72,7.33-1.93,10.32-5.77,13.81-4,3.65-6-1.41-7.8-3.48-4.89-5.62,3.27-6.66,4.17-10.36Z"/>
      <path d="M645.33,464.87c1.77,2.9,5.19,5.45.8,9.15s-6.42,0-8.88-2.38c-2.19-2.13-4.19-4.46-6.27-6.7Z"/>
      <path d="M1087,191c-46.14,0-92.28-.15-138.42.15-6.39,0-7.61-1.85-7.59-7.84q.36-76.64,0-153.28c0-6.75,1.81-8.48,8.33-8.06a239,239,0,0,0,28.45,0c5.91-.33,7.47,1.26,7.44,7.33-.28,46.34,0,92.68-.25,139,0,6.62,1.1,8.85,8.42,8.81q94.92-.53,189.84-.06c6.43,0,7.73-1.89,7.7-8-.27-46.4-.05-92.81-.33-139.21,0-6.18,1.47-8.23,7.81-7.89,10,.53,20,.27,30,0,3.71-.08,5.65.33,5.64,4.88q-.22,79.48,0,159c0,6.18-3.52,5.1-7.08,5.11Z"/>
      <path d="M1177.16,48.1c0-5-1.29-6.19-6.11-6.13-18.71.27-37.41.11-56.12.11-19,0-37.91.11-56.87-.07-4.28,0-5.91.85-5.87,5.6q.35,41.9,0,83.77c0,5.27,1.55,6.7,6.74,6.67q56.11-.28,112.23,0c5,0,6-1.46,6-6.2Q1176.81,90,1177.16,48.1Zm-85.74,8.46c0,20,.09,40,0,60,0,2.53,1.33,6.57-3.53,6.22-4.13-.3-2.68-3.94-2.68-6.22-.12-20-.06-40-.06-59.95A10.62,10.62,0,0,1,1091.42,56.56Zm-20.83,67.77c-4.4-.13-4.37-2.49-4.37-5.64,0-19.19.08-38.4,0-57.62,0-3.49.67-5.11,4.74-5.11,4.46,0,4.41,2.44,4.4,5.53,0,9.73,0,19.46,0,29.19h0c0,9.21,0,18.42,0,27.63C1075.39,121.7,1075.51,124.45,1070.59,124.33Zm39.91-63.14c-.08,19.21,0,38.42,0,57.63,0,3,.49,5.7-4.18,5.54-4.12-.13-4.7-2.07-4.67-5.46.13-10,0-20,0-30h0c0-9.21.11-18.42-.05-27.63-.06-3.4.43-5.24,4.59-5.38C1110.69,55.73,1110.52,58.05,1110.5,61.19Zm17.39,29.32c0,9.46,0,18.94,0,28.4,0,3,.33,5.54-4.34,5.37-4.22-.14-4.62-2.09-4.6-5.4,0-18.94,0-37.87,0-56.79,0-3.09-.28-6,4.76-6.14,5.64-.13,4.1,3.4,4.14,6.15C1128,71.57,1127.89,81.05,1127.89,90.51Zm17.66,29.16c0,3.41-1.09,4.55-4.54,4.56s-3.81-1.74-3.81-4.43c.06-10.29,0-20.56,0-30.84,0-9.23,0-18.47,0-27.7,0-2.42-.87-5.28,3.62-5.2,3.95.08,4.72,1.44,4.69,5.08C1145.4,80.65,1145.43,100.16,1145.55,119.67Zm13,4.61c-4.14-.06-3.91-2.23-3.89-5q0-29.16,0-58.36c0-2.91.06-4.87,4-5,4.45-.15,4.51,2.23,4.48,5.41-.08,9.46,0,18.94,0,28.4h0c0,9.72,0,19.45,0,29.18C1163.12,122.13,1162.93,124.34,1158.51,124.28Z"/>
      <path d="M1079.1,162.49c-4.52.3-7.48-.23-9.51-2.33s-4.42-4.4-3.29-7.41c1-2.77,4.07-1.1,6.19-1.3a35.1,35.1,0,0,1,8.57,0c2.43.37,6.44-2,7,2,.48,3.37-2.13,6.29-5.31,7.91A14.49,14.49,0,0,1,1079.1,162.49Z"/>
      <path d="M1657.62,968q-99.86-.09-199.69-.32c-5.36,0-5.65,2-5.64,6.4.17,46.92,0,93.84.28,140.77,0,6.57-1.51,8.55-8.17,8.12-10-.64-20-.37-30-.06-4.47.13-5.74-1.14-5.73-5.73q.24-79.08,0-158.16c0-3.73,1-5.47,4.86-5.06a30.28,30.28,0,0,0,3.16,0q138.28,0,276.55.09c2.48,0,5.26-1.13,7.49,1,1.45,3.28.66,6.75.67,10.11.08,23.16,0,46.31.12,69.47,0,5.09-1.38,9.15-5,12.73-9.17,9-18.22,18.24-27.38,27.31a18.78,18.78,0,0,1-4.28,3.47c-3.56,1.89-6.13,1.8-6.08-3.22,0-1.84,0-3.68,0-5.53q0-47-.06-93.93C1658.66,973.05,1659.78,970.27,1657.62,968Z"/>
      <path d="M1581.72,1059c-.19,3.75-2.5,6.68-6.33,6.87-7.09.36-14.19.31-21.28,0-4.69-.19-5.9-3.94-6.09-7.8-.24-5-.07-10-.07-15h0c0-4.73-.13-9.46,0-14.19.12-4.1,1.88-7.23,6.47-7.33,4.84-.09,7.18,2.8,7.31,7.42a149.57,149.57,0,0,1-.06,16.54c-.46,5.46,1.82,7,6.77,6.41a24.18,24.18,0,0,1,7.06.08C1579.17,1052.72,1581.94,1055,1581.72,1059Z"/>
      <path d="M1644.85,1038.55c0-12.62,0-12.62-12.23-12.58-3.44,0-6.95-.49-10.27.1-11.1,2-17.57-3.33-21.91-13.61,6.78,0,13.26.22,19.75-.05,8-.33,19.06,3.55,23.31-1.76,4-5,1-15.6,1.51-23.72.28-4.6-1.43-5.79-5.83-5.77q-83.86.21-167.69.06c-4,0-5.72.78-5.5,5.14a198.59,198.59,0,0,1,0,20.56c-.25,4.62,1.41,5.7,5.78,5.6,12.31-.28,24.62-.09,38.14-.09-5.46,8.61-9.89,15.3-20.81,13.81-7.31-1-17.79-3.67-21.78,1.2-3.78,4.64-1.23,14.56-1.26,22.16-.07,18,0,18.25,17.74,17.8,6.09-.16,8.24,1.49,9.75,7.6a62.63,62.63,0,0,0,55.7,47.33c26.79,2.23,54.33-12.1,62.68-37,5.26-15.69,12.87-20.35,27.6-17.77,4.15.72,5.52-1.13,5.38-5.26C1644.64,1054.38,1644.83,1046.47,1644.85,1038.55Zm-89.38,69.89c-27.16.38-50.25-22.06-50.42-49C1504.86,1032,1527.6,1009,1555,1009c27,0,49.23,22.44,49.47,49.94C1604.68,1085.7,1582.53,1108.06,1555.47,1108.44Z"/>
      <path d="M1700.8,1091.53c.19,8.86.3,17.73.61,26.59.12,3.63-1.1,5-4.93,4.8-9.12-.36-18.26-.24-27.39-.32,1.2-9.39-2-17.65-5.9-26-2.28-4.87.06-9.9,3.43-13.89,8.69-10.26,18.57-19.37,28.2-28.72,1.44-1.4,3.23-3.26,5.48-2.13,2,1,1.1,3.31,1.06,5C1701.08,1068.44,1702.17,1080,1700.8,1091.53Z"/>
      <path d="M1700.8,1091.53v-37.61c-11.37,10.6-22.86,20.75-33.62,31.64-3.44,3.49-4.13,8.64-.72,13.74,4.78,7.14,7.64,14.88,2.63,23.3a35,35,0,0,0-4.71.31c-5.14,1-6.78-.91-6.65-6.17.35-13.7.14-27.42.12-41.13q-.11-53.77-.23-107.57c3.34,2.34,1.72,5.82,1.73,8.72.14,31.34.05,62.68.15,94,0,2.43-1.54,5.93,1.46,7.09,2.35.91,3.82-2.25,5.43-3.84,9.74-9.62,19.28-19.45,29.12-29a14.8,14.8,0,0,0,4.91-11.75c-.13-26.06.14-52.12.27-78.18.35.66,1,1.32,1,2q.07,65.76,0,131.51A10.46,10.46,0,0,1,1700.8,1091.53Z"/>
      <path d="M56.67,475.78c-.14-5.78,0-11.58-.51-17.32-.44-4.64,1.22-5.84,5.66-5.82q102,.24,204,.24c13.11,0,13.11.07,13.12,13.3,0,67.74-.12,135.48.17,203.23,0,7-1.91,8.72-8.76,8.69q-103.47-.39-206.93,0c-6,0-7.73-1.45-7.46-7.41.48-11,.25-22.14.08-33.21,0-3.81.71-6.07,5.16-5.47a45.91,45.91,0,0,0,6.32.06c11,0,11,0,12.14,11.15.82,7.93,6.12,12.9,13.39,12.55a12.94,12.94,0,0,0,12.3-13.59c-.38-6.54.86-11.78,5-17.24,6.58-8.67,5.51-17.82-1.4-26.85-6.08-7.93-4.18-23.42,1.67-31.3,13.75-18.49,31.25-33.25,47.05-49.7,5.08-5.3,12.6-7.53,16.58-14.2,1.24-2.08,4.45-.91,6.75-.92,18.45-.09,36.9,0,55.35-.14,11.29-.09,17.24-4.63,17.39-12.83s-6.34-13-18-13c-18.45,0-36.9-.11-55.35.05-4.14,0-7-.81-10-4.24-10.23-11.58-27.23-11.32-38.21.57-2.74,3-5.18,3.7-8.75,3.65-9.22-.15-18.45,0-27.67-.08-7.19-.08-12.9,2.12-15.68,9.34-1.19,4,.13,8.33-1.28,14.48C70.49,491.37,62.26,484.92,56.67,475.78Z"/>
      <path d="M49.47,607.1c11.37,0,21.32-.13,31.27.07,3,.07,4.75-1.77,7.09-2.77,3.89-1.66,7.59-1.3,10.66,2.28s3.35,6.73,1.08,10.76c-2.36,4.2-6.4,5.93-9.93,4.06-10-5.33-20.59-2.52-30.89-3.07-8.14-.43-16.34-.33-24.5,0-5.23.22-8.78-2.11-10.69-6.4-1.83-4.12-.64-8.13,2.71-11.48,15.8-15.81,31.49-31.72,47.28-47.53,21-21,42.15-41.94,63.08-63,2.15-2.16,3.25-5.34,5-8,3.24-4.93,8.14-5.42,13.31-4.49,5,.89,7.94,4.44,9,8.94,1.16,4.82.3,10-4.46,12.51-11.47,6.1-18.56,16.87-27.85,25.28-7.59,6.89-14.91,14.14-21.78,21.75C91,566.92,69.38,585.07,49.47,607.1Z"/>
      <path d="M56.67,475.78l21.41,20.37c1.47-3.48-1.21-7.75,2-10.92q0,18-.09,35.95c0,1.73.81,3.71-1.25,4.93-2.93-3.5-1.63-7.38-1.15-10.19-6.11,6.28-10.78,15.33-21,18.4q0-6.32,0-12.62c2.11-2.35,4.35-4.59,6.38-7,8.11-9.62,7.41-14-3.36-21.49-1.94,1.14-1,4.13-3.22,5.08C54.93,490.77,56.3,483.28,56.67,475.78Z"/>
      <path d="M56.61,534.32c7.12-6.81,14.24-13.61,22.1-21.14v12.93c-8.47,6.63-12,17.68-21.79,23.88C55.45,544.76,56.07,539.54,56.61,534.32Z"/>
      <path d="M56.39,498.29c.39-3,.78-6,1.3-10,5.85,5.39,13.93,8.8,12.81,17.07-1,7.49-6.54,13.18-13.91,16.31Q56.49,510,56.39,498.29Z"/>
      <path d="M136.57,1455.13c-.72,5.56-3.07,9.51-9.2,9.81-5.87.29-10.19-3.79-10-9.6s3.73-9.4,9.44-9.48S135.77,1449.43,136.57,1455.13Z"/>
      <path d="M264.37,1434.42c0-11.07-.06-22.14.08-33.22.06-5.19-.9-7.75-7.39-7.71q-93.34.45-186.71,0c-6.29,0-7.84,1.68-7.81,7.9.23,55.37.14,110.76.14,166.13,0,22.47,0,22.41-22.57,27.17-3.21.68-7.77.1-7.18,6s5.14,3.52,7.8,3.54c35.86.21,71.72.14,107.59.14v0c36.13,0,72.26-.14,108.39.14,6.25.07,7.83-1.69,7.8-7.89C264.26,1542.55,264.37,1488.49,264.37,1434.42Zm-99.43,61.08c-13.44,16.06-23.47,33.39-26.06,54.6-1.4,11.25.2,22.09,3.11,32.77,1.13,4.08-.09,4.46-3.38,4.45-19,0-38-.21-57,.11-6.25.09-5-3.78-5-7.27q0-71.17,0-142.37c0-8.17.15-16.35-.06-24.52-.1-3.71.35-5.66,5-5.63q46.67.31,93.34,0c7.45,0,5.54,6.09,8.31,10.73-22.21,0-43.05.65-63.84-.19-19.74-.79-32.66,14.28-32.21,32.27,1,38.74.4,77.51.23,116.27,0,5.2.2,8,6.9,7.64,5.77-.27,7.45-1.35,7.4-7.42-.28-39-.14-78-.09-117,0-13.14,4.32-17.55,17.5-17.63,19.76-.11,39.55.13,59.31-.17,5.35-.1,7.33,1.1,7.23,6.86C185.29,1460.35,178.49,1479.3,164.94,1495.5Z"/>
      <path d="M50.3,92.74c.32-5.13.26-7.86,7-7.83q94,.47,188,0c6.65,0,6.16,3,6.16,7.47,0,4.28.39,7.12-5.89,7-31.6-.42-63.22-.19-94.84-.19v0c-31.06,0-62.13-.09-93.18.1C52.38,99.45,49.94,98.8,50.3,92.74Z"/>
      <path d="M151.58,140.58v0c31,0,62.1.19,93.13-.16,5.95-.06,6.92,2,6.71,7.2-.19,4.54.24,7.6-6.29,7.57q-94-.41-188,0c-5.77,0-6.82-1.83-6.86-7.14,0-5.63,1-7.7,7.28-7.64C88.89,140.77,120.23,140.58,151.58,140.58Z"/>
      <path d="M251.44,175.69c-.22,4.66,0,7.47-6.39,7.44q-94.24-.42-188.5,0c-6.74,0-6-3.31-6.21-7.71-.29-5,.93-6.8,6.37-6.76,31.62.27,63.26.13,94.87.13v0c31,0,62.09.18,93.12-.16C250.44,168.64,251.71,170.35,251.44,175.69Z"/>
      <path d="M251.55,120c-.05,6.25-1.77,7.78-7.88,7.72-31-.32-62-.14-92.92-.14v0c-31.1,0-62.2-.12-93.28.11-5.31,0-7.53-1-7.17-6.9.32-5,0-8,6.87-7.85,35.78.88,71.58.35,107.36.58,26.46.18,53,.32,79.44-.58C249.64,112.71,251.58,113.8,251.55,120Z"/>
      <path d="M302,51.47a34.11,34.11,0,0,1,0-5.54c-.1-9.43-4.39-14-13.76-14.24-5.53-.16-11.09-.22-16.6.09a18.17,18.17,0,0,1-13.65-4.57c-9.85-8.28-20.2-16-30.2-24.09A12.39,12.39,0,0,0,219.11.26C176.67.37,134.22.58,91.8,0c-10.13-.15-18,2.45-25.45,9.17C50.94,23.06,35.48,37,11.69,31.94,5.39,30.61,1.17,36,.31,42.54-.1,45.66.58,48.9.14,52c-.7,5,1.22,7,6,6,7.24-1.39,8.45,1.9,8.41,8.55-.3,46.14,0,92.27-.35,138.4-.05,6.81,2.06,8.17,8.4,8.12,43-.27,86-.14,128.91-.14,42.43,0,84.84-.19,127.27.19,7.4.06,9.08-2,9-9.16-.34-46.13,0-92.26-.32-138.39,0-6.11,1.43-8.76,7.63-7.58C300.56,59.06,303,57.17,302,51.47ZM264.81,188.58c0,5.88-1.11,8.07-7.64,8q-107-.33-214.07,0c-4.38,0-5.91-1.16-5.88-5.75.15-37.93.25-75.86-.07-113.8,0-6.17,3.33-5.19,6.9-5.19H151.28c35.56,0,71.12,0,106.7,0,4.36,0,7.09-.07,7,6.06C264.59,114.82,264.61,151.69,264.81,188.58Z"/>
      <path d="M1190.05,663.9c.07,6.6-4.24,5.36-8,5.36q-60.06,0-120.12,0c-23.67,0-47.33-.56-71-.32-5.14.05-5.55-1.9-5.54-5.9q.11-97.62,0-195.19c0-4.89,1.68-6.39,6.44-6.38q62.42.33,124.83.35c-5.19,8.1-11.31,15.3-19.45,20.56-.19.12-.38.25-.58.36-.37.25-.73.48-1.11.7-4.32,1.23-8.8.31-13.15,1-3,.46-6.93.73-4.24,5.66a11,11,0,0,1,3.13,1.67,4.13,4.13,0,0,1,1.61,2.89,12.36,12.36,0,0,1-1.2,5.54c-2.47,6.32-5.79,10.32-10.25,12.5a14.79,14.79,0,0,1-2.09.86,29.2,29.2,0,0,1-12,1.09c-13.6-1.11-27.36-.3-41-.22-3,0-6.47-.95-8.57,2.47a14,14,0,0,0-.7,3.1c-1,11.87.41,13.45,12.14,13.5,17.91.09,35.81,0,53.72-.41,2.63-.07,6.43-1.14,7.51,2.46.88,3-1.44,5.43-3.3,7.7a19.89,19.89,0,0,1-16.47,7.81c-15-.11-30-.22-45.07.05-7.36.14-8.5,1.77-8.7,9-.16,5.61,2,8.21,7.81,8.18,9.5,0,19-.35,28.46.17,8.15.46,9.13,3,4.48,9.8-4.18,6.12-9.67,9.41-17.28,9.14-5.26-.2-10.54.1-15.81,0-5.92-.14-7.71,2.82-7.69,8.31s1.45,9,7.92,9c13.44-.05,26.89-.27,40.33.12,8,.22,10.3,2.68,10.16,9.81-.15,6.68-2.32,8.83-10.12,9-13.43.33-26.88.19-40.32.08-6.39-.06-8.13,3-7.94,8.84.17,5.1,2.69,7,7.4,7.06,8.44,0,16.87-.17,25.29-.17q59.32,0,118.61,0c5.29,0,10.14,0,10-7.56-.08-5.62-2.18-8.15-7.93-8.15-13.16,0-26.34.27-39.51-.14-7.75-.24-10.73-3.1-10.87-9.56s2.05-8.91,9.05-9.21c11.85-.51,23.72-.13,35.57-.17,13.31-.07,13.31,0,13.71-13.52a39.29,39.29,0,0,1,.27-3.92c.19-.46.38-.91.58-1.35.1-.25.22-.51.35-.76,4.29-9.16,11.32-15.81,20.18-20.76C1189.71,597.56,1189.75,630.73,1190.05,663.9Z"/>
      <path d="M1190.07,467.25c-.25,20.25-.33,40.5-.48,60.76-4.4,8.81-11.33,15.22-19.06,20.9l-.19.14-1.78,1.27c-19.1,1.28-38.21.7-57.3.38-8.07-.14-13.21-5.35-15.57-14,.2-.47.41-1.2.81-1.28l1.47-.3s0,0,0,0l.68-.12a.08.08,0,0,1,.06,0c9.4-1.9,19.25-3.53,27.93-.11a22.69,22.69,0,0,1,2.2,1,21.45,21.45,0,0,1,2,1.11c12.94,8.13,23.78,6.61,34.65-.87.73-.51,1.47-1,2.2-1.6.21-.14.4-.3.6-.46a33.93,33.93,0,0,0,2.36-3.48c.52-.86,1-1.71,1.39-2.56a27.48,27.48,0,0,0-2.53-28.43c-12.58-16.9-38.39-14.06-47.24,5.75-1.48,3.35-3.18,5.66-5.31,7.12a8.63,8.63,0,0,1-1.84,1,15.54,15.54,0,0,1-7.21.93c-6.05-.4-12.14.16-18.19-.17a15.48,15.48,0,0,1-4-.7h0a6.84,6.84,0,0,1-1.49-.68c-2.82-1.71-2.88-4.94-.19-9.62a31.74,31.74,0,0,1,11-11.25c.86-.54,1.74-1.05,2.66-1.52a.21.21,0,0,0,.06-.08,16.64,16.64,0,0,0,2.3-3.67l.22-.23c.29-.3.59-.58.87-.88,8.4-8.55,16.82-17,26.79-23.83,18.69-.05,37.38,0,56-.26C1188.33,461.4,1190.12,462.79,1190.07,467.25Z"/>
      <path d="M1189.59,528q0,18.18,0,36.38c-5.94,7.34-14.12,12.6-19.13,20.78-.46.27-.94.52-1.4.74-5.17,2.49-10.43,1.84-15.74-.17,0-.34-.1-.65-.16-1a.8.8,0,0,0,0-.15c-2-10.61-10.08-10.74-18.79-10.06a19.07,19.07,0,0,1-5.06-.16,10.54,10.54,0,0,1-2.23-.66,11.74,11.74,0,0,1-1.14-.54c-2-5.35,2.72-4.42,5-4.61,8.32-.71,16.71-.25,25.06-.31,11.65-.07,11.65,0,12.27-11.4.16-2.78.08-5.61,2.14-7.85.06-.06.12-.14.19-.2C1175.21,540.38,1183.61,535.3,1189.59,528Z"/>
      <path d="M1127.9,461.72c-8.12,9.2-17.29,17.29-26.59,25.24-2.36-.91-3.84-2.77-5.1-4.85,7.11-6.46,12.7-14.46,20.43-20.3Z"/>
      <path d="M1098.57,1013.53a10.72,10.72,0,0,1-10.56,11.4c-6.33.11-11.18-4.34-11.42-10.49-.24-6.81,4.29-11.67,11-11.76C1093.92,1002.58,1098.38,1007,1098.57,1013.53Z"/>
      <path d="M1179.88,998a12.37,12.37,0,0,0-4-9.68q-19.95-19.66-39.62-39.61a8.62,8.62,0,0,0-6.84-2.88q-41.92.12-83.81,0a8.83,8.83,0,0,0-6.85,2.9q-19.92,20.14-40.07,40.08c-2.64,2.61-3.48,5.48-3.45,9.16.16,25.56.29,51.12,0,76.69-.07,5.62,1.58,7.07,7,7,28.45-.26,56.92-.11,85.39-.11v-.38c28.69,0,57.4,0,86.1,0,3.79,0,6.33.18,6.29-5.09C1179.72,1050.07,1179.74,1024,1179.88,998Zm-46.34,20.51c-.57,5.33-7.86,3.63-11.63,6.82,1.25,2,2.63,4,3.93,6.13,1.13,1.85,3.84,3.21,1.78,6.06-1.82,2.5-4.51,1.83-6.5,1.14-7.63-2.71-7.82.66-5.79,6.44.79,2.31,2.69,4.76-.71,6.88-3,1.87-4.42-1-5.95-2.07-4.61-3.23-7.65-4.73-8.14,3.08-.14,2.16.19,5.78-3.15,6.52s-4-2.67-5.62-4.57c-1.33-1.6-2.51-3.34-3.9-5.21-.69.61-1.19,1-1.7,1.52-2.89,2.68-3.21,9.12-8.34,8-4-.85-2.7-6.25-3.54-9.57s-1.84-3.29-4.13-1.77c-1.76,1.15-3.5,2.34-5.3,3.4-1.27.74-2.5,2-4.18.57s-2.36-2.6-1.33-4.73c.65-1.36.47-3.14,1.11-4.53,2.29-5.16-.15-5.21-4.21-4.38-2.9.58-6.44,2.48-8.63-1.08-2.09-3.4,1.7-5.17,3.14-7.31,2.42-3.56,3.32-5.62-2.06-6.82-2.45-.54-6.25-.14-6.7-4-.49-4.39,3.66-4.75,6.21-5.89,4.38-2,4.1-3.56.82-6.42-2.17-1.89-6.6-2.71-5.22-6.87,1.3-3.93,5.51-1.36,8.13-2.68a19.61,19.61,0,0,1,4.58-1c-4.42-13.89-4.42-13.89,10.57-11.41a10.42,10.42,0,0,1-.15-3c.84-3.35-2.23-8.13,2.22-9.92,3.78-1.54,5.65,2.88,7.93,5.1s3.73,2.59,5-.75c.65-1.72,1.43-3.38,2.12-5.09s1-3.39,3.6-3.37,2.72,2.1,3.48,3.59c1.3,2.55,2.37,5.22,3.48,7.67,4.86-1.5,6.58-8.92,11.69-6.9,5.57,2.22,0,8.8,2.9,12.77,4.4.95,9-5.82,12.68-1.36,3.35,4-3,7.6-3.38,11.95.26.29.51.87.88,1,4.13,1,10.42-.59,11.93,3.46,2.09,5.57-6.84,5.37-7.87,10.37a5.5,5.5,0,0,0,.71,1C1127.16,1014.12,1134,1013.88,1133.54,1018.47Z"/>
      <path d="M1124.64,1130.73l-11-.19c-4.16-1.35-6.8-4.68-9.77-7.57-2.41-2.34-5.08-4.49-7.77-.79-2.92,4,1.26,4.56,3.45,6,.92.6,1.6,1.29,1.29,2.5q-68.34.11-136.66.26c-4,0-5.18-1-5.47-5.22-.49-7.41,1.4-13.15,7.22-17.93,4.25-3.5,7.91-7.71,11.83-11.6,2.39-1.69,5.11-.85,7.66-.85q62.38-.09,124.78,0c2.69,0,6.52-1.66,7.92,1.37,1.33,2.85-2,5-3.68,7.26-1.23,1.57-3.29,2.68-3,5.77,3.62-.87,5.55-3.84,8.14-5.73,3.09-2.26,6.29-4.4,10.05-2,4,2.58,4.16,6.85,2.69,10.62C1130,1118.76,1128.06,1125.08,1124.64,1130.73Z"/>
      <path d="M1140.46,1130.62l-3,0c-5.7-3.63-4.15-8.82-2-13.23,3-6.13,6.09-11.67.87-18.18-1.8-2.24-.39-3.88,2.52-3.88,10.49,0,21,.1,31.48,0,4.3,0,4.22,2,2.5,4.93-2.24,3.8-5.94,6.58-8.66,11.92,6.39-2.38,10.84-5.79,13.49-10,5.18-8.14,12-7.81,19.75-6.06,4.67,4.57,9.44,9,14,13.73,2.47,2.56,5.08,4.9,5.24,9.19.42,11.85.63,11.87-11.18,11.83q-26.07-.07-52.13-.22c-.93-2.81,1.56-4.23,2.56-6.25.62-1.25,1-2.54-.18-3.56s-2.5-.34-3.55.5C1148.22,1124.43,1145.4,1128.85,1140.46,1130.62Z"/>
      <path d="M1197.36,1096.1c-14.45-3.53-18.57,10.64-27.72,16.2-2.1,1.28-3,5.85-6.68,2.27-3.3-3.21-1.35-5.2,1.37-7.64,3.2-2.86,5.82-6.37,9.29-10.27h-36.94c8.13,7.5,5,14.52.09,22-2.36,3.54-1.86,8.07.65,11.94l-12.78.16a24.11,24.11,0,0,1,4.49-15.53,12.14,12.14,0,0,0,2-7.49c0-2.33-.66-4.18-2.92-5a4.36,4.36,0,0,0-5,1.08c-3,3-6.25,5.63-9.11,8.69-2.16,2.32-3.64,1.83-5.91.1-3-2.3-1.64-3.93.29-5.61,3.31-2.88,6.72-5.64,10.09-8.44-.5-.78-1-1.55-1.51-2.32H977.79c2.6-2.62,5.93-1.58,8.94-1.59q102.06-.08,204.13,0C1193.08,1094.61,1195.66,1093.59,1197.36,1096.1Z"/>
      <path d="M1100.87,1130.65c-1-1.58-2.76-1.15-4.21-1.59-2.33-.71-4.77-2.07-4.5-4.71.31-3,3.21-4.62,5.37-6.46s3.87-.35,5.38,1.23c3.6,3.79,7.17,7.61,10.76,11.42Z"/>
      <path d="M1140.46,1130.62c3.47-3.59,6.92-7.2,10.42-10.75,1.84-1.87,3.5-4.14,6.52-1.37s2.37,4.83-.12,7.3a60,60,0,0,0-4,4.83Z"/>
      <path d="M1529.69,1453.28c.5-2.7.17-7.44,4.32-7.51,5.21-.09,4.13,5.33,4.32,8.54s0,8.28-4,8.19S1529.69,1457.65,1529.69,1453.28Z"/>
      <path d="M1538.63,1566c-1.1,2.91.25,8.28-4.74,8.1-3.83-.14-4.06-4.71-4.14-8.11-.09-3.7.25-8.38,4.55-8.41S1537.75,1562.58,1538.63,1566Z"/>
      <path d="M1472.93,1510.3c-.71,3.11-.43,8-4.44,8-4.7,0-4.37-5.36-4.49-8.68-.12-3.12.26-8.2,4.19-8.13C1472.57,1501.58,1472.48,1506.55,1472.93,1510.3Z"/>
      <path d="M24.92,1042.78a8.76,8.76,0,0,1,6.16,6.91c.44,2.52-6.72,11.48-9,10.91-3.54-.88-6.77-3.09-7.86-6.77C13.36,1050.89,21,1043.12,24.92,1042.78Z"/>
      <path d="M53.38,1014.34c0,3.91,0,7,0,10.12,0,1.89-.28,3.86-2.24,4.61s-3.6-.59-4.8-1.89c-1.39-1.5-3-3.58-1.2-5.52C47.31,1019.27,48.54,1015.76,53.38,1014.34Z"/>
      <path d="M556.51,541.37c1.63.32,1.63,1.68,1.54,3-.1,1.43-.86,2.46-2.44,2.3s-2.05-1.43-1.76-2.81A2.8,2.8,0,0,1,556.51,541.37Z"/>
      <path d="M573.1,517c4.34-4.1,6.95-6.88,9.88-9.26,2.51-2,5.27-1.66,7.85.32a5,5,0,0,1,1.9,5.53c-.79,3.31-3.53,3.37-6.18,3.4C582.92,517,579.3,517,573.1,517Z"/>
      <path d="M1581.72,1059c-.19,3.75-2.5,6.68-6.33,6.87-7.09.36-14.19.31-21.28,0-4.69-.19-5.9-3.94-6.09-7.8-.24-5-.07-10-.07-15h0c0-4.73-.13-9.46,0-14.19.12-4.1,1.88-7.23,6.47-7.33,4.84-.09,7.18,2.8,7.31,7.42a149.57,149.57,0,0,1-.06,16.54c-.46,5.46,1.82,7,6.77,6.41a24.18,24.18,0,0,1,7.06.08C1579.17,1052.72,1581.94,1055,1581.72,1059Z"/>
      <path d="M136.57,1455.13c-.72,5.56-3.07,9.51-9.2,9.81-5.87.29-10.19-3.79-10-9.6s3.73-9.4,9.44-9.48S135.77,1449.43,136.57,1455.13Z"/>
      <path d="M50.3,92.74c.32-5.13.26-7.86,7-7.83q94,.47,188,0c6.65,0,6.16,3,6.16,7.47,0,4.28.39,7.12-5.89,7-31.6-.42-63.22-.19-94.84-.19v0c-31.06,0-62.13-.09-93.18.1C52.38,99.45,49.94,98.8,50.3,92.74Z"/>
      <path d="M50.26,148.06c0-5.63,1-7.7,7.28-7.64,31.35.35,62.69.16,94,.16v0c31,0,62.1.19,93.13-.16,5.95-.06,6.92,2,6.71,7.2-.19,4.54.24,7.6-6.29,7.57q-94-.41-188,0C51.35,155.23,50.3,153.37,50.26,148.06Z"/>
      <path d="M251.44,175.69c-.22,4.66,0,7.47-6.39,7.44q-94.24-.42-188.5,0c-6.74,0-6-3.31-6.21-7.71-.29-5,.93-6.8,6.37-6.76,31.62.27,63.26.13,94.87.13v0c31,0,62.09.18,93.12-.16C250.44,168.64,251.71,170.35,251.44,175.69Z"/>
      <path d="M50.3,120.77c.32-5,0-8,6.87-7.85,35.78.88,71.58.35,107.36.58,26.46.18,53,.32,79.44-.58,5.67-.21,7.61.88,7.58,7.09s-1.77,7.78-7.88,7.72c-31-.32-62-.14-92.92-.14v0c-31.1,0-62.2-.12-93.28.11C52.16,127.7,49.94,126.7,50.3,120.77Z"/>
      <path d="M1099.39,581.83c-.06,8.67-.36,17.36-.05,26,.18,4.59-1.36,5.63-5.77,5.7-17.69.25-17.69.41-17.69-17.28v-1.59c0-13.83,0-13.83-15.75-13.92,6.79-8.09,12.87-15.32,18.94-22.57,2.77-3.42,5.54-6.85,8.71-10.74,9.08,10.8,17.91,21.34,27.58,32.88C1109.08,580.91,1104.23,581.37,1099.39,581.83Z"/>
      <path d="M1174,528.12c-1.54,2.51-.7,5.88-3.4,7.7-.54-.34-.73-.71-.56-1.07a2,2,0,0,1,.22-.38.42.42,0,0,1,.31-.18c0-1.29.07-2.51.12-3.65.54-17.22-.68-17.25-20.3-17.2q-17.61,0-35.23.08l-29.45.06h0l-16.35,0q-28.41.06-56.83.16c-2.61,0-5.22.26-7.85.41,1.77-3.6,5.08-2,7.64-2,18.08-.15,36.13-.25,54.19,0,4.81.08,7.72-.82,9.11-5.92a25,25,0,0,1,7.28-11.6c-2.69-2.83-7,.68-8.51-3.4,1.25-.44,2.5-.82,3.77-1.16a35.22,35.22,0,0,1,19.6.26q1.59.5,3.15,1.14c-6.42,3-11.87,7-15.6,13.24-2.69,4.5-3,7.41,3.58,7.33q12.24-.12,24.51.05c3,0,4.35-.75,5.36-4.07,7.54-24.89,38.06-28.33,52-10.86C1177.11,505.12,1179.31,519.34,1174,528.12Z"/>
      <path d="M1170.56,535.82c-3.58,2.13-7,4.7-10.78,6.29-7.93,3.3-16.51,5.66-24-.05-7.3-5.57-15.08-6.33-23.6-5.93-5.23.23-10.49-.13-15.73-.23a37.58,37.58,0,0,1,4.23-.91c8.5-1.38,17.11,0,25.64-.13h.34c13.68-.22,27.37.84,41-.38,1-.08,1.89-.17,2.84-.29v0C1170.53,534.75,1170.54,535.29,1170.56,535.82Z"/>
      <path d="M1153.31,581.69a26.56,26.56,0,0,0-.19,2.95v.15c-11.38,2.07-20.54-.6-26.08-11-.26-.48-.49-1-.73-1.46,6,0,12,.44,17.88-.24C1152.09,571.15,1154.48,574.49,1153.31,581.69Z"/>
      <path d="M1098.57,1013.53a10.72,10.72,0,0,1-10.56,11.4c-6.33.11-11.18-4.34-11.42-10.49-.24-6.81,4.29-11.67,11-11.76C1093.92,1002.58,1098.38,1007,1098.57,1013.53Z"/>
      <path d="M1581.72,1059c-.19,3.75-2.5,6.68-6.33,6.87-7.09.36-14.19.31-21.28,0-4.69-.19-5.9-3.94-6.09-7.8-.24-5-.07-10-.07-15h0c0-4.73-.13-9.46,0-14.19.12-4.1,1.88-7.23,6.47-7.33,4.84-.09,7.18,2.8,7.31,7.42a149.57,149.57,0,0,1-.06,16.54c-.46,5.46,1.82,7,6.77,6.41a24.18,24.18,0,0,1,7.06.08C1579.17,1052.72,1581.94,1055,1581.72,1059Z"/>
      <path d="M136.57,1455.13c-.72,5.56-3.07,9.51-9.2,9.81-5.87.29-10.19-3.79-10-9.6s3.73-9.4,9.44-9.48S135.77,1449.43,136.57,1455.13Z"/>
      <path d="M251.42,147.65c-.19,4.54.24,7.6-6.29,7.57q-94-.41-188,0c-5.77,0-6.82-1.83-6.86-7.14,0-5.63,1-7.7,7.28-7.64,31.35.35,62.69.16,94,.16v0c31,0,62.1.19,93.13-.16C250.66,140.39,251.63,142.49,251.42,147.65Z"/>
      <path d="M245.49,99.47c-31.6-.42-63.22-.19-94.84-.19v0c-31.06,0-62.13-.09-93.18.1-5.09,0-7.53-.62-7.17-6.68.32-5.13.26-7.86,7-7.83q94,.47,188,0c6.65,0,6.16,3,6.16,7.47C251.39,96.7,251.77,99.54,245.49,99.47Z"/>
      <path d="M251.44,175.69c-.22,4.66,0,7.47-6.39,7.44q-94.24-.42-188.5,0c-6.74,0-6-3.31-6.21-7.71-.29-5,.93-6.8,6.37-6.76,31.62.27,63.26.13,94.87.13v0c31,0,62.09.18,93.12-.16C250.44,168.64,251.71,170.35,251.44,175.69Z"/>
      <path d="M251.55,120c-.05,6.25-1.77,7.78-7.88,7.72-31-.32-62-.14-92.92-.14v0c-31.1,0-62.2-.12-93.28.11-5.31,0-7.53-1-7.17-6.9.32-5,0-8,6.87-7.85,35.78.88,71.58.35,107.36.58,26.46.18,53,.32,79.44-.58C249.64,112.71,251.58,113.8,251.55,120Z"/>
      <path d="M1099.39,581.83c-.06,8.67-.36,17.36-.05,26,.18,4.59-1.36,5.63-5.77,5.7-17.69.25-17.69.41-17.69-17.28v-1.59c0-13.83,0-13.83-15.75-13.92,6.79-8.09,12.87-15.32,18.94-22.57,3.34-1.12,5.54,1,7.66,2.88,4.88,4.42,9,9.56,13.88,14C1103.4,577.62,1104.08,580.36,1099.39,581.83Z"/>
      <path d="M1115.36,580.34c-6.28.57-11.13,1-16,1.49-.5-1.66,3.74-2.22,1.08-4.31-7.58-5.95-12.38-15-21.4-19.32,2.77-3.42,5.54-6.85,8.71-10.74C1096.86,558.26,1105.69,568.8,1115.36,580.34Z"/>
      <path d="M1098.57,1013.53a10.72,10.72,0,0,1-10.56,11.4c-6.33.11-11.18-4.34-11.42-10.49-.24-6.81,4.29-11.67,11-11.76C1093.92,1002.58,1098.38,1007,1098.57,1013.53Z"/>
    </g>
  </g>
</svg>
