<svg xmlns="http://www.w3.org/2000/svg" xmlns:xlink="http://www.w3.org/1999/xlink" viewBox="0 0 92.37 130.61">
  <defs>
    <style>
      .cls-1 {
        fill: #fff;
      }

      .cls-2 {
        fill: url(#Degradado_sin_nombre_3);
      }
    </style>
    <linearGradient id="Degradado_sin_nombre_3" data-name="Degradado sin nombre 3" x1="19.48" y1="113.22" x2="66.9" y2="33.95" gradientUnits="userSpaceOnUse">
      <stop offset="0" stop-color="#2a4596"/>
      <stop offset="1" stop-color="#3da9e0"/>
    </linearGradient>
  </defs>
  <g id="Capa_2" data-name="Capa 2">
    <g id="Capa_1-2" data-name="Capa 1">
      <path class="cls-1" d="M65.85,0,62.43,14.28l-7.2,30.13L53.42,52h0l-1.6,6.71-.19.77H11.71L18.52,52H41a6,6,0,0,0,5.8-4.58l5.07-21.19L55.3,11.94Z"/>
      <path class="cls-2" d="M71.19,76.52,47.57,103.45l5.6-25.77H45.51L44.34,83l-7,32L34,130.49l.23.12,9.83-11.12L85.76,72.31l6.61-7.48H6.61L0,72.31H69.28A2.54,2.54,0,0,1,71.19,76.52Z"/>
    </g>
  </g>
</svg>
